<svg width="128" height="128" viewBox="0 0 128 128" fill="none" xmlns="http://www.w3.org/2000/svg">
<g clip-path="url(#clip0_24_22)">
<path fill-rule="evenodd" clip-rule="evenodd" d="M64 118C93.8234 118 118 93.8234 118 64C118 34.1766 93.8234 10 64 10C34.1766 10 10 34.1766 10 64C10 93.8234 34.1766 118 64 118ZM64 128C99.3462 128 128 99.3462 128 64C128 28.6538 99.3462 0 64 0C28.6538 0 0 28.6538 0 64C0 99.3462 28.6538 128 64 128Z" fill="#F4E1DA"/>
<path d="M90.7953 43.8284C92.3574 42.2663 92.3574 39.7337 90.7953 38.1716C89.2332 36.6095 86.7005 36.6095 85.1384 38.1716L64.4833 58.8267L43.8282 38.1716C42.2661 36.6095 39.7334 36.6095 38.1713 38.1716C36.6092 39.7337 36.6092 42.2664 38.1713 43.8285L58.8264 64.4836L38.1713 85.1387C36.6092 86.7008 36.6092 89.2334 38.1713 90.7955C39.7334 92.3576 42.2661 92.3576 43.8282 90.7955L64.4833 70.1404L85.1384 90.7956C86.7005 92.3577 89.2332 92.3577 90.7953 90.7956C92.3574 89.2335 92.3574 86.7008 90.7953 85.1387L70.1401 64.4836L90.7953 43.8284Z" fill="#F4E1DA"/>
</g>
<defs>
<clipPath id="clip0_24_22">
<rect width="128" height="128" fill="white"/>
</clipPath>
</defs>
</svg>
