<svg width="95" height="23" viewBox="0 0 95 23" fill="none" xmlns="http://www.w3.org/2000/svg">
<g clip-path="url(#clip0_1_107)">
<path d="M2.35774 18.4006C1.3794 18.1628 0.59349 17.8532 0 17.4717L1.26763 14.4886C1.87649 14.8653 2.5364 15.1464 3.22562 15.3225C3.95858 15.5254 4.71399 15.6293 5.4729 15.6317C6.15406 15.6317 6.63972 15.5589 6.92989 15.4133C7.22006 15.2678 7.36471 15.0576 7.36383 14.7828C7.36383 14.5116 7.1885 14.3168 6.83784 14.1984C6.29483 14.0431 5.74085 13.9321 5.18098 13.8662C4.35104 13.77 3.52943 13.6086 2.7233 13.3835C2.05518 13.1895 1.45156 12.8101 0.978338 12.2865C0.489169 11.7522 0.244584 11.0015 0.244584 10.0342C0.236582 9.26813 0.479861 8.52175 0.934944 7.91618C1.39343 7.29785 2.0645 6.8088 2.94816 6.44902C3.83182 6.08923 4.88818 5.90844 6.11724 5.90663C6.99181 5.90547 7.8642 5.99634 8.72088 6.17782C9.47452 6.32272 10.2022 6.58566 10.8787 6.95751L9.6098 9.92437C8.54938 9.31441 7.35381 8.99814 6.13959 9.00638C5.4729 9.00638 4.98242 9.08638 4.67209 9.24639C4.36175 9.40639 4.2079 9.61792 4.2079 9.87827C4.2079 10.1684 4.37753 10.3705 4.71943 10.4857C5.27229 10.6495 5.83622 10.7705 6.40653 10.8478C7.24007 10.9642 8.0651 11.1382 8.87605 11.3685C9.52746 11.5658 10.1153 11.9406 10.5776 12.4533C11.0598 12.9812 11.3009 13.7188 11.3009 14.6662C11.3074 15.4264 11.0646 16.1666 10.6118 16.7666C10.1516 17.3849 9.47304 17.8704 8.57623 18.2229C7.67942 18.5755 6.60027 18.7531 5.33878 18.7558C4.33516 18.7559 3.33488 18.6367 2.35774 18.4006Z" fill="#603790"/>
<path d="M23.0737 6.70119C23.9742 7.23155 24.7137 8.01003 25.2093 8.9494C25.7352 9.92027 25.9982 11.0502 25.9982 12.3393C25.9982 13.6284 25.7352 14.7584 25.2093 15.7293C24.714 16.6689 23.9745 17.4474 23.0737 17.9775C22.1618 18.5091 21.1297 18.7823 20.0822 18.7693C18.6725 18.7693 17.5526 18.3332 16.7224 17.4608V23.0203H12.4922V6.11541H16.5186V7.35477C17.3076 6.39203 18.4941 5.91021 20.0782 5.90931C21.1271 5.89559 22.1607 6.16883 23.0737 6.70119ZM21.0171 14.5007C21.4905 13.9728 21.7277 13.2496 21.7285 12.3312C21.7294 11.4127 21.4923 10.6896 21.0171 10.1616C20.7793 9.91142 20.4954 9.71264 20.1821 9.57694C19.8688 9.44124 19.5324 9.37135 19.1926 9.37135C18.8528 9.37135 18.5164 9.44124 18.2031 9.57694C17.8899 9.71264 17.606 9.91142 17.3681 10.1616C16.893 10.6905 16.6558 11.4136 16.6567 12.3312C16.6576 13.2487 16.8947 13.9719 17.3681 14.5007C17.606 14.751 17.8899 14.9497 18.2031 15.0854C18.5164 15.2211 18.8528 15.291 19.1926 15.291C19.5324 15.291 19.8688 15.2211 20.1821 15.0854C20.4954 14.9497 20.7793 14.751 21.0171 14.5007Z" fill="#603790"/>
<path d="M27.308 6.01782H31.5356V18.4507H27.308V6.01782Z" fill="#603790"/>
<path d="M61.3147 18.0206C60.3028 17.5037 59.4541 16.701 58.8674 15.7059C58.2808 14.7109 57.9803 13.5645 58.001 12.4001C57.9833 11.2424 58.2843 10.1032 58.8689 9.11467C59.4535 8.12612 60.298 7.32871 61.3042 6.8149C62.4008 6.27835 63.5994 6 64.8132 6C66.027 6 67.2256 6.27835 68.3222 6.8149C69.3216 7.3216 70.1621 8.10885 70.747 9.08615C71.3331 10.0845 71.6339 11.2333 71.6149 12.4001C71.6327 13.5707 71.332 14.723 70.747 15.7263C70.1631 16.7102 69.3229 17.5052 68.3222 18.0206C67.2294 18.5642 66.0318 18.8465 64.8185 18.8465C63.6052 18.8465 62.4075 18.5642 61.3147 18.0206ZM66.6351 14.586C67.1085 14.059 67.3456 13.3285 67.3465 12.3947C67.3465 11.4763 67.1094 10.7576 66.6351 10.2387C66.3955 9.99162 66.1111 9.7956 65.798 9.66186C65.485 9.52813 65.1494 9.4593 64.8106 9.4593C64.4717 9.4593 64.1362 9.52813 63.8231 9.66186C63.5101 9.7956 63.2256 9.99162 62.9861 10.2387C62.5109 10.7576 62.2738 11.4763 62.2747 12.3947C62.2747 13.3276 62.5118 14.058 62.9861 14.586C63.2239 14.8362 63.5078 15.035 63.8211 15.1707C64.1344 15.3064 64.4708 15.3763 64.8106 15.3763C65.1504 15.3763 65.4868 15.3064 65.8 15.1707C66.1133 15.035 66.3972 14.8362 66.6351 14.586Z" fill="#603790"/>
<path d="M95 6.07883V18.5117H90.9735V17.2737C90.1846 18.2383 88.998 18.7201 87.4139 18.7192C86.366 18.7326 85.3333 18.4593 84.421 17.9273C83.5183 17.3947 82.7781 16.6122 82.2842 15.6683C81.7582 14.6893 81.4952 13.5593 81.4952 12.2783C81.4952 10.9974 81.7582 9.86742 82.2842 8.88841C82.7793 7.95137 83.5197 7.1766 84.421 6.65241C85.3353 6.12816 86.3666 5.85938 87.4126 5.87273C88.8372 5.87273 89.9571 6.30076 90.7724 7.15683V6.07205L95 6.07883ZM90.128 14.4642C90.6032 13.9371 90.8403 13.2067 90.8394 12.2729C90.8394 11.3545 90.6023 10.6358 90.128 10.1169C89.8884 9.86981 89.604 9.67379 89.2909 9.54006C88.9779 9.40632 88.6424 9.33749 88.3035 9.33749C87.9646 9.33749 87.6291 9.40632 87.3161 9.54006C87.003 9.67379 86.7186 9.86981 86.479 10.1169C86.0038 10.6358 85.7667 11.3545 85.7676 12.2729C85.7676 13.2058 86.0047 13.9362 86.479 14.4642C86.7169 14.7144 87.0007 14.9132 87.314 15.0489C87.6273 15.1846 87.9637 15.2545 88.3035 15.2545C88.6433 15.2545 88.9797 15.1846 89.293 15.0489C89.6063 14.9132 89.8901 14.7144 90.128 14.4642Z" fill="#603790"/>
<path d="M29.3751 4.91133C30.6903 4.91133 31.7565 3.81189 31.7565 2.45567C31.7565 1.09944 30.6903 0 29.3751 0C28.0598 0 26.9937 1.09944 26.9937 2.45567C26.9937 3.81189 28.0598 4.91133 29.3751 4.91133Z" fill="#603790"/>
<path d="M64.686 0.656297C65.0432 0.656029 65.3925 0.765025 65.6896 0.969493C65.9867 1.17396 66.2183 1.46471 66.3551 1.80496C66.4919 2.14521 66.5278 2.51965 66.4582 2.88092C66.3885 3.24219 66.2166 3.57405 65.964 3.8345C65.7114 4.09495 65.3896 4.2723 65.0392 4.34409C64.6889 4.41588 64.3258 4.3789 63.9958 4.23782C63.6658 4.09674 63.3839 3.8579 63.1856 3.55153C62.9873 3.24516 62.8816 2.88503 62.8819 2.51669C62.8826 2.0235 63.0729 1.55072 63.4111 1.20199C63.7493 0.85325 64.2077 0.657014 64.686 0.656297ZM64.686 0.0623813C64.2148 0.0615764 63.7539 0.204949 63.3618 0.474351C62.9696 0.743753 62.6638 1.12707 62.4829 1.5758C62.3021 2.02452 62.2545 2.51847 62.346 2.99512C62.4376 3.47178 62.6642 3.90972 62.9972 4.2535C63.3302 4.59729 63.7547 4.83146 64.2168 4.92639C64.679 5.02132 65.158 4.97273 65.5934 4.78678C66.0287 4.60083 66.4008 4.28588 66.6625 3.88178C66.9242 3.47768 67.0637 3.00261 67.0635 2.51669C67.0635 1.86624 66.8131 1.24238 66.3673 0.78219C65.9215 0.321996 65.3168 0.0631 64.686 0.0623813Z" fill="#603790"/>
<path d="M42.5156 18.5076H38.7337C37.3405 18.5005 36.007 17.9236 35.0258 16.9037C34.0447 15.8838 33.4959 14.5041 33.5001 13.0675V6.01642H37.4266V13.0675C37.4266 13.4257 37.5641 13.7694 37.809 14.0234C38.0539 14.2775 38.3863 14.4213 38.7337 14.4234H42.5156V18.5076Z" fill="#603790"/>
<path d="M56.8579 18.5118H52.4962V12.5265C52.4962 11.2546 51.5415 10.2213 50.3699 10.2213C49.1982 10.2213 48.2422 11.256 48.2422 12.5265V18.5118H43.8805V12.5265C43.8805 8.77452 46.7918 5.72223 50.3699 5.72223C53.9479 5.72223 56.8579 8.77452 56.8579 12.5265V18.5118Z" fill="#603790"/>
<path d="M78.1907 14.6147C77.8433 14.6147 77.5101 14.4729 77.2637 14.2204C77.0173 13.9678 76.8778 13.625 76.8758 13.2668V9.91893H79.7687V6.73104H76.8758V3.70044H72.9572V13.2668C72.9585 14.6977 73.5104 16.0696 74.4916 17.0813C75.4728 18.0931 76.8031 18.6622 78.1907 18.6636H80.9929V14.6147H78.1907Z" fill="#603790"/>
</g>
<defs>
<clipPath id="clip0_1_107">
<rect width="95" height="23" fill="white"/>
</clipPath>
</defs>
</svg>
