<svg width="121" height="29" viewBox="0 0 121 29" fill="none" xmlns="http://www.w3.org/2000/svg">
<g clip-path="url(#clip0_1_94)">
<path d="M3.00302 23.2007C1.75692 22.9009 0.755919 22.5105 0 22.0295L1.61456 18.2682C2.39005 18.7432 3.23058 19.0976 4.10842 19.3196C5.04199 19.5755 6.00414 19.7065 6.97075 19.7095C7.83833 19.7095 8.45691 19.6177 8.82649 19.4342C9.19608 19.2507 9.38031 18.9857 9.3792 18.6392C9.3792 18.2972 9.15588 18.0516 8.70925 17.9023C8.01763 17.7065 7.31203 17.5665 6.59893 17.4834C5.54185 17.3621 4.49537 17.1587 3.46863 16.8748C2.61765 16.6303 1.84883 16.1518 1.24609 15.4916C0.623047 14.818 0.311523 13.8714 0.311523 12.6518C0.301331 11.6859 0.611192 10.7448 1.19082 9.98124C1.77479 9.20162 2.62952 8.58499 3.75503 8.13134C4.88053 7.6777 6.226 7.44974 7.79143 7.44746C8.90535 7.44601 10.0165 7.56058 11.1076 7.7894C12.0675 7.9721 12.9944 8.30363 13.8561 8.77248L12.2399 12.5133C10.8892 11.7442 9.36643 11.3455 7.8199 11.3558C6.97075 11.3558 6.34603 11.4567 5.95076 11.6585C5.5555 11.8602 5.35954 12.1269 5.35954 12.4552C5.35954 12.8211 5.5756 13.0758 6.01106 13.2211C6.71524 13.4276 7.43351 13.5802 8.1599 13.6776C9.22157 13.8244 10.2724 14.0437 11.3053 14.3342C12.135 14.583 12.8836 15.0555 13.4725 15.7019C14.0867 16.3676 14.3937 17.2976 14.3937 18.4922C14.4021 19.4507 14.0928 20.384 13.5161 21.1405C12.9299 21.9201 12.0657 22.5322 10.9234 22.9767C9.78116 23.4212 8.40666 23.6452 6.79992 23.6486C5.52163 23.6487 4.24759 23.4984 3.00302 23.2007Z" fill="#603790"/>
<path d="M29.3887 8.44934C30.5356 9.11805 31.4775 10.0996 32.1087 11.284C32.7786 12.5082 33.1136 13.9329 33.1136 15.5583C33.1136 17.1837 32.7786 18.6084 32.1087 19.8326C31.4779 21.0173 30.536 21.999 29.3887 22.6672C28.2272 23.3376 26.9126 23.6821 25.5784 23.6657C23.783 23.6657 22.3565 23.1158 21.2991 22.0158V29.0256H15.9111V7.71075H21.0395V9.27342C22.0445 8.05953 23.5557 7.45202 25.5734 7.45088C26.9093 7.43358 28.2257 7.7781 29.3887 8.44934ZM26.7692 18.2836C27.3722 17.6179 27.6742 16.7061 27.6753 15.548C27.6764 14.39 27.3744 13.4782 26.7692 12.8125C26.4662 12.497 26.1047 12.2464 25.7056 12.0753C25.3066 11.9042 24.8782 11.8161 24.4454 11.8161C24.0126 11.8161 23.5841 11.9042 23.1851 12.0753C22.7861 12.2464 22.4245 12.497 22.1215 12.8125C21.5163 13.4793 21.2143 14.3911 21.2154 15.548C21.2165 16.7049 21.5186 17.6168 22.1215 18.2836C22.4245 18.5991 22.7861 18.8497 23.1851 19.0208C23.5841 19.1919 24.0126 19.28 24.4454 19.28C24.8782 19.28 25.3066 19.1919 25.7056 19.0208C26.1047 18.8497 26.4662 18.5991 26.7692 18.2836Z" fill="#603790"/>
<path d="M34.7817 7.58765H40.1664V23.2639H34.7817V7.58765Z" fill="#603790"/>
<path d="M78.1388 22.5681C76.8499 21.9163 75.7689 20.9042 75.0217 19.6495C74.2745 18.3949 73.8918 16.9494 73.9181 15.4814C73.8956 14.0216 74.2789 12.5852 75.0236 11.3388C75.7682 10.0924 76.8437 9.08695 78.1254 8.4391C79.5221 7.76259 81.0488 7.41162 82.5947 7.41162C84.1407 7.41162 85.6674 7.76259 87.0641 8.4391C88.3371 9.07798 89.4076 10.0706 90.1525 11.3029C90.899 12.5617 91.2822 14.0101 91.2579 15.4814C91.2806 16.9573 90.8977 18.4102 90.1525 19.6753C89.4088 20.9158 88.3387 21.9182 87.0641 22.5681C85.6722 23.2534 84.1468 23.6094 82.6014 23.6094C81.0561 23.6094 79.5307 23.2534 78.1388 22.5681ZM84.9153 18.2374C85.5182 17.5729 85.8202 16.6519 85.8213 15.4745C85.8213 14.3165 85.5193 13.4103 84.9153 12.7561C84.6101 12.4445 84.2478 12.1974 83.8491 12.0288C83.4504 11.8601 83.023 11.7733 82.5914 11.7733C82.1598 11.7733 81.7324 11.8601 81.3337 12.0288C80.935 12.1974 80.5727 12.4445 80.2675 12.7561C79.6623 13.4103 79.3603 14.3165 79.3614 15.4745C79.3614 16.6508 79.6635 17.5718 80.2675 18.2374C80.5705 18.5529 80.9321 18.8035 81.3311 18.9746C81.7301 19.1457 82.1586 19.2339 82.5914 19.2339C83.0242 19.2339 83.4526 19.1457 83.8517 18.9746C84.2507 18.8035 84.6123 18.5529 84.9153 18.2374Z" fill="#603790"/>
<path d="M121 7.66459V23.3409H115.872V21.7799C114.867 22.9961 113.355 23.6036 111.338 23.6024C110.003 23.6193 108.688 23.2748 107.526 22.604C106.376 21.9325 105.433 20.9458 104.804 19.7556C104.134 18.5212 103.799 17.0965 103.799 15.4814C103.799 13.8663 104.134 12.4415 104.804 11.2071C105.435 10.0256 106.378 9.04872 107.526 8.38779C108.69 7.72678 110.004 7.38789 111.336 7.40471C113.15 7.40471 114.577 7.94441 115.615 9.0238V7.65604L121 7.66459ZM114.795 18.2374C115.4 17.5729 115.702 16.6519 115.701 15.4745C115.701 14.3165 115.399 13.4103 114.795 12.7561C114.489 12.4445 114.127 12.1974 113.728 12.0287C113.33 11.8601 112.902 11.7733 112.471 11.7733C112.039 11.7733 111.612 11.8601 111.213 12.0287C110.814 12.1974 110.452 12.4445 110.147 12.7561C109.542 13.4103 109.24 14.3165 109.241 15.4745C109.241 16.6508 109.543 17.5718 110.147 18.2374C110.45 18.5529 110.811 18.8035 111.21 18.9746C111.61 19.1457 112.038 19.2338 112.471 19.2338C112.904 19.2338 113.332 19.1457 113.731 18.9746C114.13 18.8035 114.492 18.5529 114.795 18.2374Z" fill="#603790"/>
<path d="M37.4146 6.19255C39.0898 6.19255 40.4478 4.8063 40.4478 3.09627C40.4478 1.38625 39.0898 0 37.4146 0C35.7395 0 34.3815 1.38625 34.3815 3.09627C34.3815 4.8063 35.7395 6.19255 37.4146 6.19255Z" fill="#603790"/>
<path d="M82.3895 0.827468C82.8445 0.82713 83.2893 0.964559 83.6677 1.22237C84.0461 1.48018 84.3411 1.84678 84.5154 2.27578C84.6897 2.70479 84.7353 3.17692 84.6467 3.63243C84.558 4.08795 84.3389 4.50637 84.0172 4.83477C83.6955 5.16317 83.2856 5.38677 82.8394 5.47729C82.3932 5.56781 81.9307 5.52118 81.5104 5.3433C81.0901 5.16542 80.731 4.86428 80.4785 4.47798C80.2259 4.09169 80.0913 3.6376 80.0916 3.17318C80.0925 2.55134 80.3349 1.95522 80.7656 1.51551C81.1964 1.0758 81.7803 0.828372 82.3895 0.827468ZM82.3895 0.0786175C81.7893 0.0776027 81.2023 0.258376 80.7028 0.598057C80.2033 0.937738 79.8138 1.42106 79.5835 1.98684C79.3532 2.55262 79.2925 3.17542 79.4091 3.77642C79.5257 4.37743 79.8144 4.92961 80.2385 5.36307C80.6627 5.79654 81.2033 6.09181 81.7919 6.2115C82.3805 6.33119 82.9907 6.26993 83.5452 6.03547C84.0997 5.80101 84.5736 5.40389 84.9069 4.89438C85.2402 4.38486 85.418 3.78586 85.4176 3.17318C85.4176 2.35304 85.0987 1.56645 84.5309 0.986202C83.9631 0.405957 83.1929 0.0795238 82.3895 0.0786175Z" fill="#603790"/>
<path d="M54.1514 23.3357H49.3345C47.5601 23.3267 45.8616 22.5994 44.6119 21.3134C43.3621 20.0274 42.6633 18.2878 42.6686 16.4764V7.58594H47.6697V16.4764C47.6697 16.9281 47.8448 17.3614 48.1567 17.6817C48.4687 18.0021 48.8921 18.1834 49.3345 18.1861H54.1514V23.3357Z" fill="#603790"/>
<path d="M72.4192 23.3409H66.8637V15.7943C66.8637 14.1906 65.6477 12.8878 64.1554 12.8878C62.6631 12.8878 61.4455 14.1923 61.4455 15.7943V23.3409H55.89V15.7943C55.89 11.0635 59.5981 7.21497 64.1554 7.21497C68.7127 7.21497 72.4192 11.0635 72.4192 15.7943V23.3409Z" fill="#603790"/>
<path d="M99.5904 18.4272C99.1479 18.4272 98.7234 18.2485 98.4096 17.9301C98.0958 17.6116 97.9182 17.1794 97.9155 16.7277V12.5065H101.6V8.48696H97.9155V4.66577H92.9244V16.7277C92.9262 18.5319 93.6291 20.2616 94.8788 21.5373C96.1285 22.8131 97.823 23.5305 99.5904 23.5324H103.159V18.4272H99.5904Z" fill="#603790"/>
</g>
<defs>
<clipPath id="clip0_1_94">
<rect width="121" height="29" fill="white"/>
</clipPath>
</defs>
</svg>
