<svg width="268" height="125" viewBox="0 0 268 125" fill="none" xmlns="http://www.w3.org/2000/svg">
<rect width="268" height="125" fill="white"/>
<path d="M94.3849 73.3805V73.6957C94.3849 101.241 73.2346 123.529 47.2441 123.529C21.2553 123.529 0 101.136 0 73.5906V2.62866H94.3849V73.3805Z" fill="#004A8F"/>
<path d="M35.6689 91.9892C35.5639 91.7791 35.3539 91.5689 35.2488 91.3588C35.3539 91.3588 35.8808 91.3588 35.9858 91.1486C35.9936 91.4594 35.8799 91.761 35.6689 91.9892ZM43.4554 84.8406C43.2454 84.3153 42.7202 83.7899 42.5084 83.2646C41.9832 83.8932 41.4581 84.5254 40.8243 85.0508C40.8243 85.1559 42.1933 84.8406 43.4554 84.8406ZM33.3547 92.8298C33.4598 92.5146 33.5648 92.3044 33.7748 91.9892C33.4598 92.0943 33.1447 92.1993 32.9346 91.9892C32.9346 92.3044 33.1447 92.6196 33.3547 92.8298ZM40.6161 85.2609C40.2992 85.4711 40.0891 85.6812 39.774 85.8914C40.6734 86.1015 41.609 86.1015 42.5084 85.8914C41.9832 85.6812 41.143 85.4711 40.6161 85.2609ZM61.7663 88.2048C61.6595 87.8896 61.4494 87.4693 61.2394 87.2591C60.8269 87.3694 60.4353 87.5469 60.0805 87.7845C60.6056 87.8896 61.2412 87.9946 61.7663 88.2048ZM23.254 77.587C23.4641 77.587 23.7792 77.9022 23.8842 78.0073C23.8842 77.7972 23.8842 77.4819 23.9892 77.2718C23.7792 77.3769 23.4641 77.4819 23.254 77.587ZM24.096 80.3189C23.8846 80.5476 23.7709 80.8499 23.7792 81.1613C23.9892 81.0562 24.3043 80.9512 24.6212 80.9512C24.3061 80.8461 24.2011 80.6359 24.096 80.3189ZM51.9789 89.3606C51.6638 89.5707 51.4538 89.8859 51.2419 90.2011C51.5588 90.2011 51.767 90.4131 52.189 90.5182C51.9789 90.0961 52.0839 89.6758 51.9789 89.3606ZM30.3035 91.9892C30.0935 91.8841 29.8816 91.7791 29.6715 91.5689C29.5665 91.8841 29.5665 92.0943 29.5665 92.4095C29.7726 92.2092 30.0262 92.0645 30.3035 91.9892ZM29.0414 89.5707C28.9363 89.5707 28.8313 88.6251 28.8313 88.6251C28.5331 88.8276 28.3103 89.1232 28.1975 89.4656C28.5144 89.4656 28.7245 89.4656 29.0414 89.5707ZM60.2923 78.4276C60.5024 79.1631 61.0275 79.7935 61.6595 80.2138C61.3444 79.2682 61.0275 78.4276 60.7124 77.4801C60.1873 76.4294 59.2403 75.5888 58.0813 75.3787C58.9234 76.3243 59.6604 77.3751 60.2905 78.4276H60.2923ZM48.5076 79.4783C49.8747 79.2682 50.9268 78.2175 49.4546 76.8515C49.5597 77.7972 49.1377 78.7428 48.5076 79.4783ZM46.8235 80.1088C48.1907 79.5834 49.5579 78.5327 47.9806 76.9566C47.9806 78.1124 47.5623 79.2682 46.8235 80.1088ZM45.3495 80.424C46.2966 80.424 47.7706 78.8479 46.4016 77.6921C46.4016 78.7428 46.0847 79.6885 45.3495 80.424ZM71.13 85.4711C71.2463 85.69 71.411 85.8795 71.6115 86.0251C71.812 86.1708 72.0431 86.2688 72.2871 86.3117C71.9721 86.6269 71.5501 86.837 71.1282 86.9421C71.2351 87.5743 71.5501 88.4149 71.6552 89.1522C71.7602 89.8859 71.4451 90.7283 70.078 90.7283C70.2007 91.1471 70.1632 91.5965 69.9729 91.9892C69.8661 92.1993 69.551 92.3044 69.2359 92.1993C69.1309 92.0943 69.0259 91.9892 69.0259 91.779C68.919 91.3588 69.0259 90.9385 69.1309 90.5164C68.1838 90.8334 68.3939 91.7791 67.972 92.1993C67.7619 92.5146 67.3418 92.6196 66.9217 92.4095C66.8149 92.3044 66.7099 92.3044 66.7099 92.1993C66.2897 91.674 66.4998 90.6233 67.7619 90.6233C66.9199 90.3062 66.0779 90.0979 65.7628 91.1486C65.3427 91.0435 65.1326 90.8334 65.0258 90.4113C65.1326 88.52 67.8688 90.5164 68.3939 89.1504C68.604 88.4149 68.4989 87.5743 67.972 86.9421C67.3418 86.3117 66.4998 85.8914 65.6578 85.6812C63.9737 85.366 62.5015 84.3153 61.5545 82.9475C60.8958 81.8604 60.2985 80.7373 59.7654 79.5834C59.458 78.9221 58.9677 78.3627 58.3525 77.9714C57.7374 77.58 57.0231 77.3731 56.2941 77.3751C55.067 77.5725 53.8884 78.001 52.8209 78.6377L47.6656 81.2646C47.8756 81.5816 48.0857 81.7899 48.4026 82.0019C47.7688 82.0019 47.2436 82.0019 46.6135 81.7917C46.6135 82.212 46.7185 82.6323 46.8235 83.0526C46.4016 83.1577 43.3504 83.4729 42.5084 82.9475C42.7202 82.6323 42.9303 82.3171 43.0353 82.0019C45.4564 82.0019 48.9277 80.8461 50.2967 78.8479C48.1907 80.3189 45.7696 81.1613 43.2454 81.4747C43.2454 80.9493 43.2454 80.424 43.0353 79.8986C42.6152 83.3678 38.6169 85.6812 36.1959 87.8877C37.248 87.8877 38.3 86.9421 39.2471 86.2066C39.5622 86.6269 39.8791 87.049 40.2992 87.4693C39.8791 87.5743 39.3521 87.4693 38.932 87.2591C37.8799 87.8896 36.8279 88.52 35.6707 89.1504C36.1959 90.5182 35.2488 91.2519 34.1968 90.0961C33.9867 90.6214 33.6716 91.6722 32.8278 91.5689C31.7775 91.3588 32.7228 89.8859 33.0396 89.4675C32.1976 89.6758 31.5656 90.4113 31.5656 91.2537C30.0935 91.9892 29.3565 90.8334 29.8816 89.991C30.0935 89.5707 30.7236 89.5707 31.4606 89.2555C30.7236 89.1504 29.9884 88.9403 29.3565 89.5707C28.8313 88.3098 30.0935 88.3098 31.1455 88.52C32.6177 88.7301 33.3547 87.9946 34.1968 86.9439L35.8808 84.7338C37.353 83.7881 38.3 82.212 38.5101 80.424C39.1421 80.6359 39.8791 80.741 40.6143 80.5309C40.1946 79.6466 40.0837 78.647 40.2992 77.6921C40.5092 78.3225 41.0362 78.7428 41.6682 78.953C42.0883 77.3769 43.4554 76.7446 44.1924 75.3787L44.6143 76.5345C46.1916 75.5888 47.4537 74.2229 48.0857 72.5399C48.5076 73.0653 49.1377 73.4856 49.8747 73.4856V72.5399C50.5067 72.9602 51.2419 73.0653 51.9789 73.0653L51.3469 72.1196C53.241 71.9095 55.2402 71.6993 57.1343 71.6993C59.8704 71.5943 62.5015 72.0146 65.0258 73.1704C66.2897 73.8008 69.656 74.8533 70.288 72.645C70.6031 71.3841 69.656 70.7519 68.709 70.1214C67.4469 69.491 66.1847 68.8606 65.0258 68.1251C65.1326 67.9149 65.2377 67.8098 65.2377 67.5997C67.0249 68.4403 69.2359 69.1758 70.6031 70.6468C71.3401 71.5943 71.3401 72.9602 70.4981 73.8008C69.3391 74.9584 67.3418 74.8515 65.8678 74.6432C66.7099 75.0635 67.3418 75.799 67.6569 76.7446C67.2368 76.7446 66.7099 76.6396 66.2897 76.5345C66.0779 76.0091 65.7646 75.5888 65.4477 75.1685L65.5527 75.6939C65.6578 76.5345 65.7628 77.3751 65.7628 78.2175C65.7628 79.3733 65.8678 80.529 65.9729 81.6867C66.0644 82.3384 66.3269 82.9541 66.7338 83.4713C67.1406 83.9884 67.6772 84.3884 68.2889 84.6305C68.709 84.7356 69.1309 84.8406 69.446 85.0508C69.7611 85.2609 69.7611 85.4711 69.7611 85.7863C69.5525 86.3509 69.5213 86.9658 69.6718 87.5486C69.8223 88.1314 70.1473 88.6543 70.6031 89.0472C70.1823 88.0511 70.0725 86.951 70.288 85.8914C70.4981 85.2609 70.183 84.6305 69.551 84.3153C69.1309 84.2102 68.709 83.9982 68.2889 83.8932C66.8149 83.2627 66.6048 82.0019 66.3948 80.6341C66.2897 79.8986 66.3948 79.058 66.2897 78.3225C66.2897 77.7972 66.2897 77.3751 66.1847 76.8497C66.6048 77.3751 67.1318 77.7972 67.6569 78.2175H66.4998C67.3418 78.8479 67.7619 79.3733 68.3939 79.8986C67.972 79.8986 67.5519 79.6885 67.235 79.4783C67.1289 80.0835 67.1491 80.7042 67.2943 81.3012C67.4395 81.8982 67.7066 82.4588 68.0788 82.9475C68.709 83.683 69.446 83.683 70.393 83.7881C71.3401 83.8932 70.7081 85.0508 72.1821 85.0508C72.0476 85.1928 71.8838 85.3039 71.7022 85.3764C71.5206 85.449 71.3253 85.4813 71.13 85.4711ZM69.1309 92.8298L69.7611 93.4602C69.7611 93.145 69.8661 92.9348 69.9729 92.6196C69.8661 92.8298 69.551 92.9348 69.1309 92.8298ZM71.4451 91.779C71.6552 91.5689 71.6552 91.2537 71.6552 90.9385C71.4451 91.1486 71.2351 91.2537 71.025 91.2537L71.4451 91.779ZM25.9902 75.4838C25.8833 75.2736 25.3564 75.1685 25.3564 75.1685C25.4632 75.3787 25.4632 75.6939 25.5682 75.904C25.4632 75.6939 25.7783 75.5888 25.9902 75.4838ZM66.2897 92.7247C66.2897 93.0399 66.2897 93.3551 66.4998 93.6704C66.7099 93.3551 66.8149 93.3551 67.1318 93.2501C66.7099 93.2501 66.3948 93.0399 66.2897 92.7247ZM55.5571 93.0399C55.6621 93.4602 55.7671 93.7772 56.0822 94.0906C56.2941 93.7754 56.3991 93.4602 56.6073 93.145C56.2941 93.2501 55.8722 93.2501 55.5571 93.0399ZM58.2914 91.8841C58.5033 92.1993 58.7133 92.4095 58.8183 92.7247C59.1334 92.3044 59.0284 92.3044 59.2403 91.8841C58.9333 91.9894 58.5983 91.9894 58.2914 91.8841ZM53.768 92.7247C53.2429 92.6196 53.031 92.5146 52.926 92.1993C52.8209 92.5146 52.8209 92.9348 52.8209 93.2501C53.241 93.0399 53.241 92.8298 53.768 92.7247ZM64.6057 90.9385C64.2906 91.1486 64.2906 91.4638 64.1856 91.674C64.3956 91.5689 64.7107 91.674 64.9208 91.674C64.8157 91.4638 64.7107 91.1486 64.6057 90.9385ZM60.0805 82.5272C57.7663 83.4729 58.7133 85.5762 60.6056 85.9964C59.4503 84.8406 59.0302 84.3153 60.0805 82.5272ZM60.8175 89.1504C59.9754 88.9403 59.1334 89.0454 58.3982 89.5707C59.8704 90.7283 59.0284 92.0943 57.3462 91.1468C57.1343 92.4095 56.2941 92.8316 55.8722 92.6196C54.8201 91.8841 55.7671 91.2537 56.1872 90.8334C55.8639 90.8371 55.5496 90.9398 55.2864 91.1277C55.0232 91.3155 54.8238 91.5795 54.715 91.8841C53.663 92.6196 52.8209 91.5689 53.136 90.9385C53.3461 90.6233 53.768 90.4131 54.61 90.5182C53.663 89.7809 53.3479 89.8859 52.7159 90.4113C52.5644 90.2571 52.4795 90.0496 52.4795 89.8334C52.4795 89.6172 52.5644 89.4097 52.7159 89.2555C52.8109 89.1559 52.9252 89.0767 53.0517 89.0225C53.1782 88.9683 53.3144 88.9404 53.452 88.9404C53.5896 88.9404 53.7258 88.9683 53.8523 89.0225C53.9788 89.0767 54.0931 89.1559 54.1881 89.2555C55.242 89.7809 55.8722 89.7809 56.5041 88.8352C56.8192 88.3098 57.1343 87.7845 57.3462 87.2591C57.6612 86.3117 57.1343 85.8914 56.2941 85.4711C55.242 84.9457 54.4 84.1051 53.978 82.9475C54.0831 81.8968 54.61 80.8461 55.5571 80.2138C56.0822 79.6885 56.5041 79.1631 56.8192 78.5327C58.7133 78.7428 59.6604 81.1595 60.5024 83.1577C59.6604 84.6305 60.1873 85.0508 61.2394 85.8932C61.7645 86.3117 61.7645 86.5218 61.1344 86.837C59.3453 87.4693 57.8713 88.9403 57.4512 90.8334C58.1433 89.8265 58.9558 88.9079 59.8704 88.0979L60.1855 88.4149C60.5024 88.6251 60.7125 88.8352 60.8193 89.1504H60.8175ZM28.8313 81.5816C29.1464 82.0019 29.4615 82.4222 29.8816 82.8425C29.7597 82.1835 29.6895 81.516 29.6715 80.8461C29.2514 80.7392 28.8313 80.5291 28.6213 80.1088C29.9884 80.424 32.0926 80.8461 33.7766 80.1088C33.8817 79.1631 33.6698 78.2175 33.7766 77.1649C31.9876 78.0073 30.0935 78.5327 28.0943 78.6377C27.7774 78.5327 27.5692 78.5327 27.3573 78.2175C27.1473 77.7972 27.0422 77.27 26.9372 76.8497C26.8304 76.5345 26.7253 76.2193 26.5153 75.904C26.3052 75.799 25.4632 76.1142 25.6733 76.3243C26.0952 76.8497 26.4103 77.4801 26.4103 78.1124C26.1019 77.7116 25.7053 77.3874 25.2513 77.1649C24.2011 76.7446 24.2011 78.0073 24.4111 78.6377C24.9363 78.4276 25.57 78.5327 26.0952 78.7428C24.6212 78.953 23.991 80.529 25.2532 80.6341C25.7783 80.529 26.3034 80.424 26.7253 80.1088C26.9372 81.8968 27.2505 82.212 28.8313 81.5816ZM50.5067 66.8624C50.4017 68.02 50.1898 69.8062 51.557 70.2265C51.1369 69.3859 51.0319 68.3352 51.0319 67.3896C50.8218 67.2827 50.7168 66.9656 50.5067 66.8624ZM35.4589 74.1178C35.2488 74.5381 35.0388 74.9584 34.9338 75.4838C35.3539 75.5888 35.6689 75.4838 36.0909 75.3787C35.8839 76.024 35.7776 76.6974 35.7758 77.3751C37.4598 77.587 38.5101 75.9041 38.932 74.433C38.3 75.3787 37.458 76.1142 36.511 76.5345C36.7228 75.5888 37.1429 74.7483 37.6699 73.9077C37.1429 74.2229 36.616 74.5381 35.9858 74.7483C36.511 73.6975 37.353 72.7501 38.4051 72.0127C36.721 72.2247 36.4059 72.6468 35.4589 74.1178ZM39.5622 75.799C38.195 76.4294 37.353 77.7972 37.1429 79.2682C36.8279 78.7428 36.511 78.2175 36.3009 77.587C35.9858 79.1631 36.1959 79.7935 37.563 80.3189C37.6699 78.6377 38.4051 77.0598 39.5622 75.799ZM43.1403 69.1758C41.3513 70.0164 40.1942 71.9095 40.1942 73.9059C41.3524 73.2921 42.4156 72.5134 43.3504 71.5943L43.0353 72.7501C43.8773 72.5399 44.6143 72.2247 45.2445 71.5943C45.4549 72.4572 45.4549 73.3581 45.2445 74.2211C46.4034 72.5399 46.0865 72.0146 45.6664 70.0182C45.1413 70.5435 44.8244 71.2791 43.9824 71.5943L44.6143 68.8588C43.5395 70.2656 42.263 71.506 40.8261 72.5399C41.2462 71.279 42.5102 70.1214 43.1403 69.1758ZM43.9824 65.4964C43.42 65.907 42.9445 66.425 42.5834 67.0205C42.2222 67.6159 41.9826 68.277 41.8782 68.9656C44.0874 68.2301 45.5614 66.3388 45.7715 64.0236C45.2363 65.3754 44.3227 66.5441 43.1403 67.3896C43.3504 66.7573 43.7723 66.1269 43.9824 65.4964ZM45.4564 60.0291C45.8765 61.3968 45.3495 62.7646 44.2975 63.6033C45.2445 63.3932 45.8765 63.078 46.0865 62.1323C46.1916 61.3968 45.9815 60.5544 45.4564 60.0291ZM48.4026 57.4022C47.9198 57.523 47.4788 57.7724 47.1264 58.1239C46.7741 58.4754 46.5236 58.916 46.4016 59.3986C46.8235 58.9783 47.3487 58.558 47.9806 58.3479C48.0857 59.0834 48.1907 59.7138 48.0857 60.4493C48.7176 59.6088 48.9277 58.3479 48.4026 57.4004V57.4022ZM47.5605 61.8171C47.7706 63.078 47.4555 64.3406 46.8235 65.3914C48.6126 64.866 48.6126 63.078 47.5605 61.8171ZM48.9277 64.7609C47.7772 65.8086 46.9397 67.155 46.5084 68.6504C46.4016 67.8098 46.4016 66.8624 46.6135 66.0236C45.4546 67.7048 45.6664 68.6504 46.2966 70.3316C47.2436 68.5454 47.9806 66.5472 48.9277 64.7609ZM41.0362 63.8135C42.0883 64.4457 43.8773 63.7084 42.5084 61.9222C42.8253 63.3932 42.2983 63.7084 41.0362 63.8135ZM42.1951 59.1885C42.1951 59.5037 42.2983 59.8189 42.5084 59.8189C42.7202 59.8189 42.8253 59.6088 42.8253 59.1885C42.8253 58.7682 42.7202 58.558 42.5084 58.558C42.2983 58.6631 42.1951 58.9783 42.1951 59.1885ZM35.2488 75.904C34.6169 76.0091 33.8817 76.2193 33.3547 75.799C34.0917 75.1685 34.6169 74.433 34.9338 73.5906C35.2675 72.6184 35.8477 71.7495 36.6178 71.0689C37.248 70.7519 37.8799 70.5435 38.5101 70.2265C38.3 70.6468 37.6699 70.9638 37.353 71.2772C39.8791 72.2247 40.8261 71.3841 41.1412 69.2809C40.9181 69.7057 40.6046 70.0765 40.223 70.3672C39.8414 70.658 39.4007 70.8616 38.932 70.9638C39.3521 70.3316 39.669 69.5961 39.5622 68.8606C38.6169 69.491 36.9329 70.962 35.7758 70.3316C35.9858 70.3316 36.511 69.9113 36.7228 69.8062C37.353 69.2809 37.985 68.8606 38.722 68.5454C39.5622 68.3352 40.5092 68.1251 41.4563 68.1251C40.6161 67.9149 39.7722 67.7048 39.037 67.2827C40.196 67.0725 41.1412 66.4421 41.8782 65.4964C43.8773 65.2863 44.5093 64.2338 44.5093 62.2356C44.1924 63.183 44.0874 63.8135 43.3504 64.3406C42.8253 64.6559 42.0883 64.866 41.4563 64.866C40.406 65.0762 39.2471 65.0762 39.669 63.6033V63.4983C40.1942 63.6033 40.8261 63.6033 41.3531 63.6033C42.1933 63.4983 43.0353 63.2881 42.8253 62.2374C42.7202 61.8171 42.3001 61.5019 41.7732 61.5019C41.1412 61.607 40.6143 61.712 39.9841 61.8171C39.7421 61.6645 39.552 61.442 39.4392 61.179C39.3263 60.916 39.296 60.6249 39.3521 60.3443C39.5622 59.8189 40.1942 59.6088 40.6161 59.3986C39.669 59.0834 39.3521 59.8189 38.932 59.8189C38.827 59.7138 38.827 59.7138 38.827 59.6088C39.2471 59.1885 39.774 58.8733 40.2992 58.6631C40.8243 58.453 41.4581 58.3479 41.9832 58.3479C42.1933 58.3479 42.5084 58.2428 42.7202 58.1377C42.8253 58.6631 43.2454 58.9783 43.7705 59.0834C43.2454 59.5037 42.9303 60.1341 42.8253 60.7646C43.4554 60.029 44.0874 59.3986 44.9294 58.8733C45.0345 59.7138 43.9824 60.1341 43.4554 60.3443C45.1395 61.0816 45.4564 59.8189 45.1395 58.7682C44.3259 58.6839 43.5383 58.4336 42.8253 58.0327C43.1403 57.8225 43.4554 57.6106 43.8755 57.5073C44.7194 57.2954 45.6664 57.4004 46.5084 57.7156C46.4016 58.0327 46.4016 58.3479 46.4016 58.6631C46.7137 58.248 47.1088 57.9027 47.5619 57.6491C48.0149 57.3955 48.5159 57.2392 49.0327 57.1903C49.3478 58.241 49.2428 59.2935 48.9277 60.3443C49.3478 60.0291 49.6647 59.8189 49.7697 59.2935C50.2949 59.8189 50.82 60.3443 51.0319 61.0816C51.3487 61.6069 51.7689 62.1323 52.4008 62.3425C51.3487 63.183 50.0848 61.3968 49.6647 60.6595C49.7697 62.0272 50.0848 62.7627 51.3487 63.183C51.8739 64.4457 51.8739 66.0218 53.0328 67.2827C50.9268 67.0725 50.715 64.7609 49.5597 63.7084C49.4546 64.866 49.0345 66.0218 48.5076 67.0725C49.2428 66.7573 49.7697 66.1269 49.9798 65.3914C50.0848 65.6015 50.1898 65.9167 50.2949 66.1269C50.0848 67.2827 49.5597 68.3352 48.8227 69.2809C48.6126 68.7555 48.5076 68.1251 48.6126 67.4928C48.3632 67.9401 48.2236 68.4402 48.2054 68.9521C48.1871 69.4639 48.2907 69.9727 48.5076 70.4367C49.1377 69.9113 49.6647 69.3859 50.0848 68.7555L50.6099 69.9113C50.6099 70.6468 50.8218 71.3841 51.0319 72.0127C50.6312 71.717 50.2772 71.3628 49.9816 70.962C49.8747 71.4874 49.6647 71.9095 49.5597 72.4348C49.0345 71.9095 48.5076 71.3841 48.2957 70.6468C47.9806 71.5943 47.6656 72.5399 47.1386 73.3823C46.7185 74.116 46.0883 74.7482 45.3495 75.2736C45.0345 74.328 44.6143 73.4856 44.1924 72.5399V72.9602C43.6673 73.2754 43.2454 73.5906 42.8253 74.0109C42.9303 73.4856 43.0353 72.9602 43.3504 72.5399C41.7732 73.4856 42.0883 74.5381 42.4033 76.0091C42.9285 75.0635 43.5623 74.116 44.1924 73.1704C44.1924 74.116 43.7723 75.0635 43.2454 75.799C42.6152 76.3243 42.0883 76.9548 41.6682 77.6921C41.2462 77.27 40.9312 76.6414 40.5092 76.116C39.8791 77.1667 39.774 78.5327 40.0891 79.6885C39.4718 79.5996 38.8899 79.3455 38.4051 78.953C38.195 80.5291 38.09 82.1069 36.8279 83.3678V82.4222C37.0379 81.1613 37.1429 80.424 35.9858 79.5834C36.511 80.6341 36.3009 81.7917 35.6707 82.7374C35.8665 81.615 35.7939 80.4622 35.4589 79.3733L34.5118 79.8986C34.4067 79.1317 34.4067 78.354 34.5118 77.587C34.7237 76.9548 34.9338 76.4294 35.2488 75.904ZM59.8704 67.3896C60.3956 67.3896 60.8175 67.4928 61.3444 67.5979C61.5545 67.2827 61.7645 67.0725 62.0814 66.8624L61.7645 66.5472C61.4017 66.4935 61.031 66.5441 60.6957 66.6929C60.3604 66.8417 60.0742 67.0844 59.8704 67.3896ZM39.8791 62.8678C39.9841 62.6577 39.9841 62.4475 40.1942 62.2374C40.0969 62.2892 39.9884 62.3164 39.8782 62.3164C39.768 62.3164 39.6594 62.2892 39.5622 62.2374L39.8791 62.8678ZM54.2931 62.7627C55.9772 64.4457 58.0813 65.7066 60.3956 66.232C60.6074 66.1269 60.9225 66.0218 61.1344 65.9167C60.6074 65.8117 60.1873 65.4964 59.6604 65.3914C58.4225 64.9661 57.2527 64.3638 56.1872 63.6033C55.4166 63.1649 54.7943 62.5063 54.4 61.712C53.8748 60.9747 54.0831 59.8189 54.8201 59.2935C55.0734 59.0986 55.3794 58.9843 55.6984 58.9655C56.0175 58.9468 56.3348 59.0245 56.6091 59.1885C56.7142 59.0834 56.8192 58.8732 56.9242 58.7682C53.978 57.5055 52.6091 60.9747 54.2931 62.7627ZM63.6586 66.232C63.337 66.067 63.0737 65.8073 62.9044 65.4878C62.735 65.1684 62.6677 64.8046 62.7116 64.4457C61.7645 64.866 61.7645 65.9167 62.9216 66.6522L64.1856 67.1776C63.7637 67.1776 63.3436 67.2827 62.9216 67.2827C62.1865 67.3877 61.3444 68.2301 61.9746 69.0707C62.0814 67.7048 63.9737 68.5454 64.6057 67.7048C64.9208 67.0725 63.9737 66.5472 63.6586 66.232ZM33.6716 80.9512C32.9346 81.0562 32.3026 81.1613 31.5656 81.0562C32.1976 81.3714 32.8296 81.5816 33.4598 81.7917C33.4598 81.4765 33.5666 81.2664 33.6716 80.9512ZM27.3573 82.5272C26.9372 82.4222 26.9372 82.4222 26.8322 82.1069C26.7715 82.2612 26.7494 82.428 26.7677 82.5928C26.786 82.7576 26.8442 82.9154 26.9372 83.0526C27.0422 82.6323 27.1473 82.7374 27.3573 82.5272ZM34.8287 82.0019C34.9341 81.5521 34.9341 81.0839 34.8287 80.6341L33.5648 81.7917C33.9867 81.8968 34.4068 82.0019 34.8287 82.0019ZM31.2506 81.1613L29.8834 80.9512C30.0935 81.6867 30.7236 82.3171 31.4606 82.6323V82.4222C31.3556 82.0019 31.2506 81.5816 31.2506 81.1613ZM58.1882 58.8733C57.8713 58.9783 57.5544 59.2935 57.3462 59.6088C57.2411 60.1341 57.4512 60.7646 57.2411 61.2917C57.8713 61.1867 58.1882 60.241 58.3982 59.7156C58.3982 60.8696 58.7133 61.9222 59.4485 62.7627C59.3453 62.0272 59.1334 61.2917 58.9234 60.5544C59.7654 61.6051 60.8175 62.3425 62.0814 62.7646V62.6577C61.3444 61.8171 60.6074 60.9747 59.6604 60.3443C60.5024 60.6595 61.8696 61.2917 62.8166 60.5544C61.9843 60.3579 61.1982 60.001 60.5024 59.5037C59.6604 58.9783 59.1334 58.453 58.1882 58.8733ZM67.0249 32.9059V37.7428H73.1274V35.2175H72.0771V32.904L67.0249 32.9059ZM76.1804 79.4783C76.3904 81.1613 76.6005 82.9475 76.6005 84.6305H81.6527L81.5458 79.4783H76.1804ZM62.2915 33.6414H59.5553V37.8461H62.2897V33.6432L62.2915 33.6414ZM65.1326 20.395V26.5979H81.9677V20.395H78.9147V24.0743H75.0215V20.3968H71.9703V24.0743H68.077V20.3968H65.1308L65.1326 20.395ZM15.5708 50.462H24.9363V45.5218H15.7826L15.5726 50.462H15.5708ZM80.0718 27.4385H67.0249V32.2754H72.1821V29.1214H74.9165V32.2736H80.0736L80.0718 27.4385ZM23.2558 68.1251H15.0456L14.9406 73.0653H21.57C21.9919 71.3841 22.517 69.7012 23.254 68.1251H23.2558ZM14.6273 84.6287H19.6795V84.4203C19.7827 82.7374 19.8877 81.1595 20.2046 79.4783H14.7305L14.6255 84.6305L14.6273 84.6287ZM73.868 91.674H82.9166V85.366H74.078L73.868 91.674ZM13.2602 91.674H22.4138L22.0987 85.366H13.1533V91.674H13.2602ZM35.9858 33.6414H33.2515V37.8461H35.9858V33.6414ZM81.2326 68.1251H73.131C73.868 69.7012 74.3931 71.3841 74.815 73.0653H81.3376L81.2326 68.1251ZM75.7603 73.8008H75.0251C75.3402 74.8515 75.5502 75.904 75.7603 76.9548V73.8008ZM74.9201 35.2193H73.868V37.7428H79.9704V32.9059H74.815L74.9201 35.2193ZM39.2471 14.087V20.2899H57.0293V14.087H53.873V17.8732H49.7697V14.1903H46.5066V17.8696H42.4033V14.1921H39.2471V14.087ZM23.9928 35.2193H22.9389V37.7428H29.0414V32.9059H23.8842L23.991 35.2193H23.9928ZM82.1796 39.8443L82.5997 38.4783H13.7835L14.2054 39.8443H82.1796ZM16.0977 32.9059V37.7428H22.2001V35.2175H21.1499V32.904L16.0977 32.9059ZM29.0414 27.4385H16.0977V32.2754H21.2549V29.1214H23.9892V32.2736H29.1464V27.4385H29.0414ZM14.0986 20.395V26.703H30.9355V20.5001H27.9893V24.1794H24.096V20.5019H21.0412V24.1794H17.148V20.5019H14.1004V20.395H14.0986ZM40.9312 37.8479H47.6656V32.9059H40.9293L40.9312 37.8479ZM55.3452 32.9059H48.4026V37.8479H55.3488V32.9059H55.3452ZM53.241 26.703H49.5615V29.6468H46.8253V26.703H43.1422V32.1704H53.2429L53.241 26.703ZM55.347 26.703H53.978V32.1704H55.347V26.703ZM55.347 21.1305H48.5076V23.5508H49.5579V25.9693H55.347V21.1323V21.1305ZM40.9312 32.1704H42.2983V26.703H40.9312V32.1704ZM46.7185 23.549H47.7688V21.1305H40.9312V25.9675H46.7185V23.549ZM21.3599 73.8044H20.5179V77.4819C20.7279 76.2211 21.043 75.0653 21.3599 73.8044ZM75.7585 51.2012H66.0779V56.1414H75.7585V51.2012ZM71.4451 56.7718V61.7138H81.0207L80.9157 56.7718H71.4451ZM81.2307 67.3896L81.0207 62.4493H76.3904V67.3914L81.2307 67.3896ZM76.4955 40.5798V44.7863H80.5988L80.4937 40.5798H76.4955ZM65.3409 56.1414V51.1993L59.0284 51.3044C61.144 52.7674 63.1491 54.3841 65.0276 56.1414H65.3409ZM70.7081 45.5218H60.0823V50.462H70.7117V45.5218H70.7081ZM71.4451 50.462H80.8106L80.7056 45.5218H71.5502V50.462H71.4451ZM76.4973 51.1993V56.1396H80.9157L80.8106 51.1993H76.4973ZM75.7585 67.3877V62.4475H70.1812C71.13 64.0236 72.0771 65.7066 72.8123 67.3896L75.7585 67.3877ZM81.5458 78.7428L81.4408 73.8008H76.4973V78.7428H81.5458ZM65.3427 40.5798H55.0301V44.7863H65.3427V40.5798ZM40.7211 51.1993C43.1403 49.9367 45.5614 48.8859 48.1907 48.1504C56.7142 51.4095 64.5007 56.9801 69.341 64.9711C72.7091 70.9638 74.4963 77.7972 74.7064 84.6305H75.8653C75.7585 82.8425 75.6534 81.0562 75.4434 79.3733C73.9712 69.1758 69.0259 59.6088 60.7124 53.4059C56.8192 50.5671 52.6109 48.3606 48.0857 46.8877C39.8791 49.7265 32.5127 54.4566 27.4623 61.712L26.9372 62.4475C22.852 69.1399 20.6017 76.7911 20.4129 84.6305H21.675C22.0969 76.6414 24.096 68.7555 28.7245 62.1305C31.8825 57.6124 35.9858 53.9312 40.7211 51.1993ZM69.6579 61.712H70.7081V56.77H65.7646C65.8678 56.8751 67.9738 59.3986 69.6579 61.712ZM66.0797 44.7863H75.7585V40.5798H66.0797V44.7863ZM30.4085 56.77H25.5682V61.712H26.5153C27.6742 60.029 29.0414 58.3479 30.4085 56.77ZM15.0474 67.3877H19.7827V62.4475H15.1506L15.0456 67.3896L15.0474 67.3877ZM30.2003 51.1993H20.5161V56.1396H30.1967V51.1993H30.2003ZM15.3643 56.1396H19.7827V51.1993H15.4675L15.3643 56.1396ZM30.2003 40.5798H20.5161V44.7863H30.1967V40.5798H30.2003ZM19.7827 73.8008H14.8392L14.7323 78.7428H19.7845L19.7827 73.8008ZM24.8349 56.7718H15.3643L15.2593 61.712H24.9381V56.77H24.833L24.8349 56.7718ZM41.248 40.5798H30.9373V44.7863H41.248V40.5798ZM37.2498 51.1993H30.9373V56.1396H31.1473C32.9614 54.2379 35.0124 52.5776 37.2498 51.1993ZM41.985 44.7863H54.2967V40.5798H41.9832V44.7863H41.985ZM26.0934 62.4457H20.5161V67.3877H23.4623C24.3043 65.7048 25.1463 64.0236 26.0934 62.4457ZM48.0839 46.0454C51.452 47.2011 54.7114 48.6722 57.7645 50.4602H59.3435V45.52H36.9329V50.4602H38.4051C41.4779 48.6715 44.7188 47.1927 48.0839 46.0454ZM15.7826 40.5798L15.6776 44.7863H19.7809V40.5798H15.7826ZM36.1959 45.5218H25.5682V50.462H36.1959V45.5218Z" fill="#FEC10D"/>
<path d="M132.159 14.7246C132.159 33.3315 129.739 38.4837 125.424 38.4837C125.109 38.4837 124.687 38.4837 124.374 38.3786V35.5398H124.687C128.581 35.5398 129.002 28.6014 129.002 11.7808H142.366V38.4837H139.313V14.7246H132.159ZM150.678 28.6014H153.939C156.043 28.6014 157.202 30.1775 157.202 32.1757C157.202 34.1739 156.36 35.855 153.939 35.855H150.68L150.678 28.6014ZM160.148 32.4909C160.358 29.1268 157.727 26.288 154.361 26.0779H150.783V17.9837H147.944V38.4837H154.258C157.519 38.4837 160.148 35.75 160.148 32.4909ZM169.724 28.9166C171.618 28.9166 172.67 30.4927 172.67 32.3858C172.67 34.8043 171.511 35.855 169.617 35.855H166.146V28.9166H169.724ZM169.302 20.4021C170.776 20.2953 172.036 21.2427 172.143 22.7137V23.3442C172.143 24.9203 170.881 26.288 169.302 26.288H166.146V20.2953L169.302 20.4003V20.4021ZM163.305 38.4818H169.407C172.25 38.4818 175.721 36.4855 175.721 32.9112C175.721 29.6521 173.827 28.0742 171.933 27.6558C173.932 26.9184 175.301 25.0271 175.194 22.9239C175.194 20.1902 172.775 18.0869 169.407 18.0869H163.41V38.4837L163.305 38.4818ZM182.561 17.8804H179.718V38.4855H182.561V17.8804ZM182.876 13.5688C182.878 13.3335 182.832 13.1001 182.743 12.8824C182.654 12.6647 182.522 12.4669 182.355 12.3007C182.189 12.1344 181.991 12.003 181.773 11.9141C181.555 11.8251 181.322 11.7804 181.087 11.7826C180.865 11.7794 180.645 11.8207 180.439 11.904C180.234 11.9874 180.047 12.111 179.89 12.2677C179.733 12.4244 179.609 12.611 179.526 12.8164C179.442 13.0218 179.4 13.2419 179.403 13.4637V13.5688C179.403 14.5163 180.14 15.3568 181.087 15.3568C181.322 15.359 181.556 15.3143 181.774 15.2252C181.992 15.1361 182.19 15.0045 182.356 14.8381C182.523 14.6717 182.654 14.4737 182.744 14.2558C182.833 14.0378 182.878 13.8043 182.876 13.5688ZM194.451 28.9184C196.345 28.9184 197.397 30.4945 197.397 32.3876C197.397 34.8061 196.24 35.8568 194.346 35.8568H190.872V28.9184H194.451ZM194.134 20.4039C195.608 20.2971 196.87 21.2445 196.975 22.7155V23.346C196.975 24.9221 195.713 26.2898 194.134 26.2898H190.977V20.2971H194.134V20.4039ZM188.136 38.4837H194.241C197.082 38.4837 200.553 36.4873 200.553 32.913C200.553 29.6539 198.659 28.0761 196.765 27.6576C198.764 26.9203 200.133 25.0289 200.028 22.9257C200.028 20.192 197.607 18.0887 194.241 18.0887H188.241V38.4855L188.136 38.4837ZM216.336 23.7681C215.811 20.2971 213.917 17.5652 210.024 17.5652C204.551 17.5652 203.394 22.8206 203.394 28.288C203.394 33.5434 204.551 38.9058 210.024 38.9058C213.917 38.9058 215.811 36.1721 216.336 32.7029C216.336 32.7029 214.759 32.2826 213.495 31.9674C213.075 34.3858 212.233 36.2789 210.024 36.2789C206.76 36.2789 206.235 32.1775 206.235 28.0779C206.235 23.9782 206.76 20.0887 210.024 20.0887C212.233 20.0887 213.075 21.98 213.495 24.3985L216.336 23.7681ZM222.65 28.6032H225.912C228.016 28.6032 229.173 30.1793 229.173 32.1775C229.173 34.1757 228.331 35.8568 225.912 35.8568H222.65V28.6032ZM232.014 32.4927C232.224 29.1286 229.595 26.2898 226.227 26.0797H222.65V17.9837H219.809V38.4837H226.122C229.385 38.4837 232.014 35.8568 232.014 32.4909V32.4927ZM235.277 38.4855H238.116V29.0217H240.327C241.063 29.0217 241.8 29.5471 242.327 30.8097L243.904 35.3297C244.221 37.221 245.798 38.5887 247.692 38.5887C248.114 38.5887 248.429 38.5887 248.849 38.4837V35.9601C248.639 36.0652 248.534 36.0652 248.324 36.0652C247.272 35.9601 246.535 35.1195 246.325 34.1739L245.063 30.1775C244.641 28.9166 243.589 27.971 242.222 27.6558C243.379 27.2337 244.221 26.3931 244.536 25.2373L245.693 22.2934C246.115 21.1376 246.745 20.6105 247.692 20.6105H248.429V18.0887C248.114 17.9837 247.692 17.9837 247.377 17.9837C245.693 17.9837 244.116 19.0344 243.484 20.6105L241.695 24.9221C241.38 25.8677 240.538 26.4982 239.485 26.6032H238.011V18.0887H235.17L235.277 38.4855ZM260.951 30.1793C260.951 33.4402 260.004 36.2771 256.953 36.2771C254.742 36.2771 254.006 34.7011 254.006 32.5996C254.006 28.1829 256.953 28.0779 260.951 28.0779V30.1793ZM256.321 38.8007C258.53 38.8007 259.794 38.2753 261.371 35.6485C262.108 37.75 263.16 38.5905 264.634 38.5905C264.949 38.5905 265.369 38.5905 265.686 38.4855V35.9601C265.474 35.9601 265.369 36.0652 265.159 36.0652C264.107 36.0652 263.897 35.3297 263.897 34.0688V24.2916C263.897 19.0344 261.266 17.5634 257.9 17.5634C254.742 17.5634 253.164 19.1395 252.007 22.0833L254.637 22.8188C255.163 21.3478 255.9 20.0851 257.795 20.0851C259.899 20.0851 260.951 20.8224 260.951 24.1866V25.7626H258.742C253.584 25.7626 251.06 28.2862 251.06 32.8061C251.06 36.2753 252.849 38.8007 256.321 38.8007ZM144.365 51.8369H141.522L135.42 64.0326L129.318 51.8369H126.476V72.3369H129.319V65.3985C129.319 63.7174 129.107 58.4601 128.897 56.9891L134.368 67.9221H136.262L141.734 56.9891C141.524 58.5652 141.314 63.7174 141.314 65.3985V72.3369H144.154V51.8351L144.365 51.8369ZM152.467 51.8369H149.626V72.3369H152.467V51.8369ZM152.677 47.4221C152.679 47.1866 152.634 46.953 152.545 46.7351C152.455 46.5172 152.324 46.3192 152.157 46.1528C151.991 45.9863 151.793 45.8547 151.575 45.7657C151.357 45.6766 151.123 45.6318 150.888 45.634C149.941 45.634 149.099 46.4746 149.099 47.4221C149.099 48.3677 149.941 49.2083 150.888 49.2083C151.123 49.2105 151.356 49.1658 151.574 49.0768C151.792 48.9879 151.99 48.8564 152.157 48.6902C152.323 48.5239 152.455 48.3262 152.544 48.1085C152.634 47.8907 152.679 47.6574 152.677 47.4221ZM169.617 57.6195C169.092 54.1503 167.198 51.3116 163.305 51.3116C157.832 51.3116 156.677 56.567 156.677 62.0362C156.677 67.2898 157.832 72.6521 163.305 72.6521C167.198 72.6521 169.092 69.9203 169.617 66.4492C169.617 66.4492 168.04 66.0289 166.778 65.7137C166.356 68.1322 165.514 70.0253 163.305 70.0253C160.043 70.0253 159.516 65.9239 159.516 61.8242C159.516 57.7246 160.042 53.8351 163.305 53.8351C165.514 53.8351 166.356 55.7264 166.776 58.1449L169.617 57.6195ZM176.141 62.4565H179.403C181.509 62.4565 182.666 64.0326 182.666 66.0289C182.666 68.0253 181.824 69.7083 179.403 69.7083H176.143V62.4547L176.141 62.4565ZM185.507 66.3442C185.717 62.98 183.086 60.1413 179.72 59.9311H176.141V51.8369H173.3V72.3369H179.615C182.876 72.3369 185.507 69.7101 185.507 66.3442ZM188.453 72.3369H191.294V62.875H193.504C194.241 62.875 194.976 63.4003 195.503 64.663L197.082 69.1829C197.397 71.076 198.974 72.4438 200.868 72.4438C201.29 72.4438 201.605 72.4438 202.027 72.3369V69.8134C201.815 69.9184 201.71 69.9184 201.5 69.9184C200.448 69.7083 199.711 68.9728 199.396 68.0271L198.134 64.0326C197.607 62.7699 196.555 61.8242 195.293 61.509C196.45 61.0887 197.292 60.2481 197.607 59.0905L198.764 56.1467C199.186 54.9909 199.816 54.4655 200.763 54.4655H201.5V51.9384C201.185 51.8333 200.763 51.8333 200.448 51.8333C198.764 51.8333 197.187 52.884 196.555 54.4601L194.766 58.7717C194.451 59.7174 193.609 60.3478 192.556 60.4547H191.082V51.9384H188.241V72.3333H188.453V72.3369ZM214.127 64.0326C214.127 67.2916 213.285 70.1304 210.129 70.1304C207.919 70.1304 207.182 68.5543 207.182 66.4492C207.182 62.0344 210.129 61.9293 214.127 61.9293V64.0326ZM209.497 72.7572C211.706 72.7572 212.97 72.2318 214.442 69.605C215.179 71.7065 216.231 72.5471 217.705 72.5471C218.02 72.5471 218.44 72.5471 218.757 72.442V69.9184C218.545 69.9184 218.44 70.0235 218.23 70.0235C217.178 70.0235 216.968 69.288 216.968 68.0271V58.25C216.968 52.9927 214.337 51.5217 210.971 51.5217C207.813 51.5217 206.235 53.0978 205.078 56.0416L207.708 56.7771C208.234 55.3061 208.971 54.0453 210.866 54.0453C212.97 54.0453 214.022 54.7808 214.022 58.1449V59.721H211.813C206.655 59.721 204.131 62.2445 204.131 66.7645C204.236 70.2355 206.025 72.7572 209.497 72.7572ZM129.318 95.9891C129.318 92.0996 129.843 87.8949 133.211 87.8949C136.579 87.8949 137.314 92.2065 137.314 95.9891C137.314 99.7753 136.684 103.978 133.211 103.978C129.739 103.978 129.318 99.9855 129.318 95.9891ZM126.476 112.179H129.319V104.085C129.788 104.817 130.423 105.428 131.172 105.866C131.922 106.305 132.765 106.559 133.633 106.609C138.998 106.609 140.26 101.351 140.26 95.9891C140.26 90.6268 138.998 85.2663 133.633 85.2663C131.634 85.2663 130.265 86.5289 129.107 88.105L128.37 85.6866H126.476V112.179ZM153.097 97.8822C153.097 101.141 152.152 103.98 149.099 103.98C146.89 103.98 146.153 102.404 146.153 100.301C146.153 95.884 149.099 95.7789 153.097 95.7789V97.8822ZM148.469 106.609C150.678 106.609 151.94 106.083 153.412 103.455C154.151 105.556 155.203 106.399 156.675 106.399C156.99 106.399 157.412 106.399 157.727 106.293V103.665C157.517 103.665 157.412 103.77 157.202 103.77C156.15 103.77 155.938 103.034 155.938 101.772V91.9945C155.938 86.7391 153.309 85.2663 149.941 85.2663C146.573 85.2663 145.206 86.8424 144.048 89.7862L146.68 90.5235C147.205 89.0507 147.942 87.788 149.836 87.788C151.94 87.788 152.992 88.5253 152.992 91.8895V93.4655H150.783C145.628 93.4655 143.101 95.9891 143.101 100.511C143.206 104.085 144.996 106.609 148.469 106.609ZM163.725 103.665C165.619 100.511 166.146 96.8315 166.461 88.3152H171.616V103.665H163.725ZM163.725 85.6866C163.725 96.5163 162.99 101.562 160.674 103.665L159.516 103.875V110.813H161.726L162.148 106.188H173.722L174.142 110.813H176.352V103.665H174.457V85.6866H163.725ZM188.768 97.8822C188.768 101.141 187.926 103.98 184.77 103.98C182.561 103.98 181.824 102.404 181.824 100.301C181.824 95.884 184.77 95.7789 188.768 95.7789V97.8822ZM184.033 106.609C186.242 106.609 187.506 106.083 189.083 103.455C189.82 105.556 190.872 106.399 192.346 106.399C192.662 106.399 193.082 106.399 193.399 106.293V103.665C193.188 103.665 193.082 103.77 192.872 103.77C191.819 103.77 191.609 103.034 191.609 101.772V91.9945C191.609 86.7391 188.978 85.2663 185.612 85.2663C182.456 85.2663 180.877 86.8424 179.72 89.7862L182.349 90.5235C182.876 89.0507 183.613 87.788 185.507 87.788C187.611 87.788 188.663 88.5253 188.663 91.8895V93.4655H186.454C181.297 93.4655 178.773 95.9891 178.773 100.511C178.878 104.085 180.667 106.609 184.033 106.609Z" fill="black"/>
</svg>
