<svg width="272" height="102" viewBox="0 0 272 102" fill="none" xmlns="http://www.w3.org/2000/svg">
<path d="M89.5373 90.3644C89.7719 90.3644 90.0064 90.4229 90.241 90.4813C90.4755 90.5982 90.6514 90.7151 90.8273 90.832C91.0032 91.0074 91.1205 91.1827 91.1791 91.4165C91.2964 91.6503 91.2964 91.8841 91.2964 92.1179C91.2964 92.3517 91.2378 92.5855 91.1791 92.8193C91.0619 93.0531 90.9446 93.2285 90.8273 93.4038C90.6514 93.5792 90.4755 93.6961 90.2996 93.7545C90.0651 93.8714 89.8305 93.8715 89.596 93.8715H88.1887C88.1301 93.8715 88.0715 93.8715 88.0715 93.813C88.0128 93.813 88.0128 93.7545 87.9542 93.7545C87.8955 93.6961 87.8955 93.6961 87.8955 93.6376C87.8955 93.5792 87.8369 93.5207 87.8369 93.4623V88.494C87.8369 88.4356 87.8369 88.3771 87.8955 88.3187C87.8955 88.2602 87.9542 88.2602 87.9542 88.2018C88.0128 88.1433 88.0128 88.1433 88.0715 88.1433C88.1301 88.1433 88.1887 88.1433 88.1887 88.1433H90.4169C90.4755 88.1433 90.5341 88.1433 90.5928 88.1433C90.6514 88.1433 90.6514 88.2018 90.7101 88.2018C90.7687 88.2602 90.7687 88.2602 90.7687 88.3187C90.7687 88.3771 90.7687 88.4356 90.7687 88.494C90.7687 88.5525 90.7687 88.6109 90.7687 88.6694C90.7687 88.7278 90.7101 88.7278 90.7101 88.7863C90.6514 88.8447 90.6514 88.8447 90.5928 88.8447C90.5341 88.8447 90.4755 88.9032 90.4169 88.9032H88.5992V90.3644H89.5373ZM89.5373 93.1116C89.6546 93.1116 89.8305 93.1116 89.9478 93.0531C90.0651 92.9947 90.1823 92.9362 90.241 92.8193C90.3582 92.7024 90.4169 92.644 90.4755 92.5271C90.5342 92.4102 90.5341 92.2933 90.5341 92.1179C90.5341 92.001 90.5342 91.8841 90.4755 91.7088C90.4169 91.5919 90.3582 91.475 90.241 91.4165C90.1237 91.2996 90.0651 91.2412 89.9478 91.1827C89.8305 91.1243 89.7132 91.1243 89.5373 91.1243H88.5405V93.1116H89.5373Z" fill="#603790"/>
<path d="M99.5054 93.6376C99.4467 93.813 99.3295 93.8715 99.1536 93.8715C99.0949 93.8715 99.0363 93.8715 98.9777 93.8715C98.919 93.8715 98.919 93.813 98.8604 93.813C98.8018 93.7545 98.8018 93.7546 98.8018 93.6961C98.8018 93.6377 98.8018 93.5792 98.8018 93.5207C98.8018 93.4623 98.8018 93.4038 98.8604 93.3454L100.795 88.4356C100.854 88.2602 100.971 88.1433 101.147 88.1433C101.323 88.1433 101.44 88.2018 101.499 88.4356L103.434 93.3454C103.434 93.4038 103.493 93.4623 103.493 93.5207C103.493 93.5792 103.493 93.6377 103.493 93.6961C103.493 93.7546 103.434 93.7545 103.434 93.813C103.375 93.8715 103.375 93.8715 103.317 93.8715C103.258 93.8715 103.199 93.8715 103.141 93.8715C102.965 93.8715 102.848 93.813 102.789 93.6376L101.206 89.6046L99.5054 93.6376Z" fill="#603790"/>
<path d="M110.939 93.3453L112.873 88.4355C112.932 88.2601 113.049 88.2017 113.225 88.2017C113.401 88.2017 113.518 88.2601 113.577 88.4355L115.512 93.3453C115.512 93.4037 115.512 93.4622 115.512 93.5207C115.512 93.6376 115.453 93.696 115.395 93.8129C115.336 93.8714 115.219 93.9298 115.102 93.9298C114.984 93.9298 114.926 93.8714 114.808 93.8129C114.75 93.7545 114.75 93.7545 114.75 93.696L114.105 92.0009H112.287L111.642 93.696C111.642 93.7545 111.584 93.7545 111.584 93.8129C111.525 93.8714 111.408 93.9298 111.29 93.9298C111.173 93.9298 111.114 93.8714 110.997 93.8129C110.939 93.7545 110.88 93.6376 110.88 93.5207C110.88 93.4622 110.88 93.4037 110.939 93.3453ZM113.812 91.1826L113.167 89.6045L112.58 91.1826H113.812Z" fill="#603790"/>
<path d="M123.018 88.5524C123.018 88.4939 123.018 88.4355 123.018 88.377C123.018 88.3186 123.076 88.3186 123.076 88.2601C123.135 88.2017 123.135 88.2017 123.193 88.2017C123.252 88.2017 123.311 88.2017 123.369 88.2017H126.418C126.477 88.2017 126.536 88.2017 126.594 88.2017C126.653 88.2017 126.653 88.2601 126.712 88.2601C126.77 88.3186 126.77 88.3186 126.77 88.377C126.77 88.4355 126.829 88.4939 126.829 88.5524C126.829 88.6108 126.829 88.6693 126.77 88.7277C126.77 88.7862 126.712 88.7862 126.712 88.8446C126.653 88.9031 126.653 88.9031 126.594 88.9031C126.536 88.9031 126.477 88.9031 126.418 88.9031H123.78V93.4622C123.78 93.5206 123.78 93.5791 123.721 93.5791C123.721 93.6376 123.663 93.6376 123.663 93.696C123.604 93.7545 123.604 93.7545 123.545 93.7545C123.487 93.7545 123.428 93.8129 123.428 93.8129C123.311 93.8129 123.193 93.7545 123.135 93.696C123.076 93.6376 123.018 93.5207 123.018 93.4038V88.5524Z" fill="#603790"/>
<path d="M139.376 91.0073C139.376 91.7671 139.083 92.4685 138.555 93.053C137.969 93.6376 137.324 93.8714 136.562 93.8714C135.741 93.8714 135.096 93.5791 134.509 93.053C133.923 92.4685 133.688 91.8256 133.688 91.0073C133.688 90.2474 133.982 89.546 134.509 89.02C135.096 88.4355 135.741 88.2017 136.562 88.2017C137.324 88.2017 138.028 88.4939 138.555 89.02C138.848 89.3122 139.024 89.6045 139.2 89.9552C139.317 90.2474 139.376 90.6566 139.376 91.0073ZM136.503 88.9615C136.21 88.9615 135.917 89.02 135.682 89.1369C135.448 89.2538 135.213 89.3707 134.978 89.6045C134.744 89.8383 134.627 90.0136 134.509 90.3059C134.392 90.5397 134.333 90.8319 134.333 91.1242C134.333 91.7087 134.568 92.1763 134.978 92.5854C135.389 92.9946 135.858 93.1699 136.444 93.1699C137.031 93.1699 137.5 92.9946 137.91 92.5854C138.321 92.1763 138.555 91.7087 138.555 91.1242C138.555 90.5397 138.321 90.0721 137.91 89.6629C137.617 89.1369 137.089 88.9615 136.503 88.9615Z" fill="#603790"/>
<path d="M151.69 93.5207V94.6312C151.69 94.6897 151.69 94.7481 151.69 94.8066C151.69 94.865 151.632 94.865 151.632 94.9235C151.573 94.9819 151.573 94.9819 151.514 94.9819C151.456 94.9819 151.397 94.9819 151.338 94.9819C151.28 94.9819 151.221 94.9819 151.162 94.9235C151.104 94.9235 151.104 94.865 151.045 94.865C150.987 94.8066 150.987 94.8066 150.987 94.7481C150.987 94.6897 150.928 94.6312 150.928 94.5728V93.8714H147.293V94.5728C147.293 94.6312 147.293 94.6897 147.234 94.7481C147.234 94.8066 147.175 94.8066 147.175 94.865C147.117 94.9235 147.117 94.9235 147.058 94.9235C146.999 94.9235 146.941 94.9819 146.882 94.9819C146.823 94.9819 146.765 94.9819 146.706 94.9819C146.648 94.9819 146.648 94.9235 146.589 94.9235C146.53 94.865 146.53 94.865 146.53 94.8066C146.53 94.7481 146.53 94.6897 146.53 94.6312V93.5207C146.53 93.4622 146.53 93.4037 146.53 93.3453C146.53 93.2868 146.589 93.2868 146.589 93.2284C146.648 93.1699 146.648 93.1699 146.706 93.1699C146.765 93.1699 146.823 93.1115 146.882 93.1115L148.7 88.4355C148.758 88.3186 148.817 88.2601 148.876 88.2601C148.934 88.2017 148.993 88.2017 149.11 88.2017C149.228 88.2017 149.286 88.2017 149.345 88.2601C149.403 88.3186 149.462 88.377 149.462 88.4355L151.28 93.1115C151.338 93.1115 151.397 93.1115 151.456 93.1699C151.514 93.1699 151.514 93.2284 151.573 93.2284C151.632 93.2868 151.632 93.2868 151.632 93.3453C151.69 93.4037 151.69 93.4622 151.69 93.5207ZM147.703 93.1115H150.459L149.11 89.6045L147.703 93.1115Z" fill="#603790"/>
<path d="M160.251 93.5207C160.251 93.6376 160.192 93.6961 160.133 93.813C160.075 93.8715 159.957 93.9299 159.84 93.9299C159.723 93.9299 159.664 93.8715 159.547 93.813C159.488 93.7545 159.43 93.6376 159.43 93.5207V88.5525C159.43 88.4356 159.488 88.3771 159.547 88.2602C159.606 88.2018 159.723 88.1433 159.84 88.1433C159.957 88.1433 160.016 88.2018 160.133 88.2602C160.192 88.3187 160.251 88.4356 160.251 88.5525V93.5207Z" fill="#603790"/>
<path d="M172.154 93.8713C172.037 93.8713 171.979 93.8129 171.861 93.7544C171.803 93.696 171.744 93.5791 171.744 93.4622V89.6044L168.519 93.696C168.46 93.8129 168.343 93.8129 168.226 93.8129C168.167 93.8129 168.109 93.8129 168.05 93.7544C167.991 93.7544 167.991 93.696 167.933 93.696C167.874 93.6375 167.874 93.6375 167.874 93.5791C167.874 93.5206 167.874 93.4622 167.874 93.4037V88.4354C167.874 88.3185 167.933 88.2601 167.991 88.1432C168.05 88.0847 168.167 88.0263 168.284 88.0263C168.402 88.0263 168.46 88.0847 168.578 88.1432C168.636 88.2016 168.695 88.3185 168.695 88.4354V92.2932L171.861 88.2016C171.92 88.0847 172.037 88.0847 172.154 88.0847C172.213 88.0847 172.272 88.0847 172.33 88.0847C172.389 88.0847 172.389 88.1432 172.448 88.1432C172.506 88.2016 172.506 88.2016 172.506 88.2601C172.506 88.3185 172.506 88.377 172.506 88.4354V93.4037C172.506 93.5206 172.448 93.5791 172.389 93.696C172.33 93.8713 172.272 93.8713 172.154 93.8713ZM170.219 87.734C170.044 87.734 169.926 87.734 169.75 87.6756C169.633 87.6171 169.457 87.5587 169.399 87.5002C169.281 87.4418 169.223 87.3249 169.164 87.208C169.105 87.0911 169.047 86.9742 169.047 86.8573C169.047 86.7404 169.105 86.6819 169.164 86.565C169.223 86.5066 169.34 86.4481 169.457 86.4481C169.574 86.4481 169.633 86.5066 169.75 86.565C169.809 86.6235 169.809 86.6819 169.868 86.7404C169.868 86.7988 169.926 86.8573 169.985 86.9157C170.044 86.9742 170.161 86.9742 170.278 86.9742C170.395 86.9742 170.513 86.9742 170.571 86.9157C170.63 86.8573 170.689 86.7988 170.689 86.7404C170.689 86.6819 170.747 86.6235 170.806 86.565C170.864 86.5066 170.982 86.4481 171.099 86.4481C171.216 86.4481 171.275 86.5066 171.392 86.565C171.451 86.6235 171.509 86.7404 171.509 86.8573C171.509 86.9742 171.451 87.0911 171.392 87.208C171.334 87.3249 171.216 87.4418 171.158 87.5002C171.04 87.5587 170.923 87.6756 170.806 87.6756C170.513 87.734 170.395 87.734 170.219 87.734Z" fill="#603790"/>
<path d="M184.115 93.5207C184.115 93.6376 184.057 93.6961 183.998 93.813C183.939 93.8715 183.822 93.9299 183.705 93.9299C183.588 93.9299 183.529 93.8715 183.412 93.813C183.353 93.7545 183.294 93.6376 183.294 93.5207V91.4165H180.714V93.5207C180.714 93.6376 180.656 93.6961 180.597 93.813C180.539 93.8715 180.421 93.9299 180.304 93.9299C180.187 93.9299 180.128 93.8715 180.011 93.813C179.952 93.7545 179.894 93.6376 179.894 93.5207V88.5525C179.894 88.4356 179.952 88.3771 180.011 88.2602C180.069 88.2018 180.187 88.1433 180.304 88.1433C180.421 88.1433 180.48 88.2018 180.597 88.2602C180.656 88.3187 180.714 88.4356 180.714 88.5525V90.6567H183.294V88.5525C183.294 88.4356 183.353 88.3771 183.412 88.2602C183.47 88.2018 183.588 88.1433 183.705 88.1433C183.822 88.1433 183.881 88.2018 183.998 88.2602C184.057 88.3187 184.115 88.4356 184.115 88.5525V93.5207Z" fill="#603790"/>
<path d="M196.136 93.7545C196.077 93.813 195.96 93.8714 195.843 93.8714C195.726 93.8714 195.667 93.813 195.55 93.7545C195.491 93.6961 195.432 93.5792 195.432 93.4623V89.6046L192.266 93.6961C192.207 93.813 192.09 93.813 191.973 93.813C191.914 93.813 191.856 93.813 191.797 93.813C191.738 93.813 191.738 93.7545 191.68 93.7545C191.621 93.6961 191.621 93.6961 191.621 93.6376C191.621 93.5792 191.621 93.5207 191.621 93.4623V88.494C191.621 88.3771 191.68 88.3186 191.738 88.2017C191.797 88.1433 191.914 88.0848 192.032 88.0848C192.149 88.0848 192.207 88.1433 192.325 88.2017C192.383 88.2602 192.442 88.3771 192.442 88.494V92.3517L195.608 88.2602C195.667 88.1433 195.784 88.1433 195.902 88.1433C195.96 88.1433 196.019 88.1433 196.077 88.1433C196.136 88.1433 196.136 88.2017 196.195 88.2017C196.253 88.2602 196.253 88.2602 196.253 88.3186C196.253 88.3771 196.253 88.4355 196.253 88.494V93.4623C196.253 93.6376 196.195 93.6961 196.136 93.7545Z" fill="#603790"/>
<path d="M207.98 93.8713C207.862 93.8713 207.804 93.8129 207.686 93.7544C207.628 93.696 207.569 93.5791 207.569 93.4622V89.6044L204.344 93.696C204.286 93.8129 204.168 93.8129 204.051 93.8129C203.992 93.8129 203.934 93.8129 203.875 93.7544C203.817 93.7544 203.758 93.696 203.758 93.696C203.699 93.6375 203.699 93.6375 203.699 93.5791C203.699 93.5206 203.699 93.4622 203.699 93.4037V88.4354C203.699 88.3185 203.758 88.2601 203.816 88.1432C203.875 88.0847 203.992 88.0263 204.11 88.0263C204.227 88.0263 204.286 88.0847 204.403 88.1432C204.461 88.2016 204.52 88.3185 204.52 88.4354V92.2932L207.686 88.2016C207.745 88.0847 207.862 88.0847 207.98 88.0847C208.038 88.0847 208.097 88.0847 208.156 88.0847C208.214 88.0847 208.214 88.1432 208.273 88.1432C208.331 88.2016 208.331 88.2016 208.331 88.2601C208.331 88.3185 208.331 88.377 208.331 88.4354V93.4037C208.331 93.5206 208.273 93.5791 208.214 93.696C208.214 93.8713 208.097 93.8713 207.98 93.8713ZM206.045 87.734C205.869 87.734 205.751 87.734 205.576 87.6756C205.458 87.6171 205.282 87.5587 205.224 87.5002C205.106 87.4418 205.048 87.3249 204.989 87.208C204.931 87.0911 204.872 86.9742 204.872 86.8573C204.872 86.7404 204.931 86.6819 204.989 86.565C205.048 86.5066 205.165 86.4481 205.282 86.4481C205.4 86.4481 205.458 86.5066 205.576 86.565C205.634 86.6235 205.634 86.6819 205.693 86.7404C205.693 86.7988 205.751 86.8573 205.81 86.9157C205.927 86.9742 205.986 86.9742 206.103 86.9742C206.221 86.9742 206.338 86.9742 206.396 86.9157C206.455 86.8573 206.514 86.7988 206.514 86.7404C206.514 86.6819 206.572 86.6235 206.631 86.565C206.69 86.5066 206.807 86.4481 206.924 86.4481C207.041 86.4481 207.1 86.5066 207.217 86.565C207.276 86.6235 207.335 86.7404 207.335 86.8573C207.335 86.9742 207.276 87.0911 207.217 87.208C207.159 87.3249 207.041 87.4418 206.983 87.5002C206.866 87.5587 206.748 87.6756 206.631 87.6756C206.396 87.734 206.221 87.734 206.045 87.734Z" fill="#603790"/>
<path d="M227.564 88.5524C227.564 88.4939 227.564 88.4355 227.564 88.377C227.564 88.3186 227.623 88.3186 227.623 88.2601C227.682 88.2017 227.682 88.2017 227.74 88.2017C227.799 88.2017 227.857 88.2017 227.916 88.2017C227.975 88.2017 228.033 88.2017 228.092 88.2017C228.151 88.2017 228.151 88.2601 228.209 88.2601C228.268 88.3186 228.268 88.3186 228.268 88.377C228.268 88.4355 228.327 88.4939 228.327 88.5524V88.7277C228.678 88.7277 228.972 88.8446 229.206 88.9031C229.499 89.02 229.734 89.1369 229.968 89.3707C230.555 89.8383 230.789 90.3643 230.789 91.0073C230.789 91.1826 230.731 91.4164 230.672 91.5918C230.613 91.7671 230.555 91.9425 230.437 92.1178C230.32 92.2932 230.203 92.4101 230.027 92.5854C229.851 92.7023 229.734 92.8192 229.499 92.9361C229.323 93.053 229.147 93.1115 228.913 93.1699C228.678 93.2284 228.502 93.2869 228.268 93.2869V93.4622C228.268 93.5206 228.268 93.5791 228.209 93.6376C228.209 93.696 228.151 93.696 228.151 93.7545C228.092 93.8129 228.092 93.8129 228.033 93.8129C227.975 93.8129 227.916 93.8129 227.857 93.8129C227.799 93.8129 227.74 93.8129 227.682 93.8129C227.623 93.8129 227.623 93.7545 227.564 93.7545C227.506 93.696 227.506 93.696 227.506 93.6376C227.506 93.5791 227.506 93.5206 227.506 93.4622V93.2869C227.388 93.2869 227.212 93.2284 227.095 93.2284C226.919 93.17 226.802 93.17 226.685 93.1115C226.568 93.0531 226.392 92.9946 226.274 92.9361C226.157 92.8777 226.04 92.7608 225.923 92.7024C225.629 92.4685 225.453 92.2347 225.278 91.9425C225.102 91.6502 225.043 91.358 225.043 91.0657C225.043 90.7735 225.102 90.4812 225.219 90.2474C225.336 89.9552 225.512 89.7214 225.747 89.546C225.981 89.3122 226.216 89.1953 226.509 89.02C226.802 88.9031 227.154 88.7862 227.447 88.7862V88.5524H227.564ZM227.564 89.4876C227.33 89.546 227.095 89.6045 226.861 89.6629C226.626 89.7798 226.45 89.8967 226.333 90.0136C226.157 90.1305 226.04 90.3059 225.981 90.4812C225.923 90.6566 225.864 90.8319 225.864 91.0073C225.864 91.1826 225.923 91.358 225.981 91.5333C226.04 91.7087 226.216 91.884 226.333 92.0009C226.509 92.1178 226.685 92.2347 226.861 92.3516C227.095 92.4685 227.271 92.527 227.564 92.527V89.4876ZM228.268 92.5854C228.502 92.527 228.737 92.4685 228.972 92.4101C229.206 92.2932 229.382 92.1763 229.499 92.0594C229.675 91.9425 229.792 91.7671 229.851 91.5918C229.91 91.4164 229.968 91.2411 229.968 91.0657C229.968 90.8904 229.91 90.715 229.851 90.5397C229.734 90.3643 229.617 90.189 229.499 90.0721C229.323 89.9552 229.147 89.8383 228.972 89.7214C228.737 89.6045 228.561 89.546 228.268 89.546V92.5854Z" fill="#603790"/>
<path d="M244.042 91.0073C244.042 91.7671 243.749 92.4685 243.221 93.053C242.635 93.6376 241.99 93.8714 241.228 93.8714C240.407 93.8714 239.762 93.5791 239.175 93.053C238.589 92.4685 238.354 91.8256 238.354 91.0073C238.354 90.2474 238.648 89.546 239.175 89.02C239.762 88.4355 240.407 88.2017 241.228 88.2017C241.99 88.2017 242.694 88.4939 243.221 89.02C243.514 89.3122 243.69 89.6045 243.866 89.9552C243.984 90.2474 244.042 90.6566 244.042 91.0073ZM241.228 88.9615C240.934 88.9615 240.641 89.02 240.407 89.1369C240.172 89.2538 239.938 89.3707 239.703 89.6045C239.469 89.8383 239.351 90.0136 239.234 90.3059C239.117 90.5397 239.058 90.8319 239.058 91.1242C239.058 91.7087 239.293 92.1763 239.703 92.5854C240.114 92.9946 240.583 93.1699 241.169 93.1699C241.755 93.1699 242.224 92.9946 242.635 92.5854C243.045 92.1763 243.28 91.7087 243.28 91.1242C243.28 90.5397 243.045 90.0721 242.635 89.6629C242.283 89.1369 241.755 88.9615 241.228 88.9615Z" fill="#603790"/>
<path d="M255.651 93.5207C255.651 93.6376 255.593 93.6961 255.534 93.813C255.476 93.8715 255.358 93.9299 255.241 93.9299C255.124 93.9299 255.065 93.8715 254.948 93.813C254.889 93.7545 254.831 93.6376 254.831 93.5207V91.4165H252.251V93.5207C252.251 93.6376 252.192 93.6961 252.133 93.813C252.075 93.8715 251.957 93.9299 251.84 93.9299C251.723 93.9299 251.664 93.8715 251.547 93.813C251.488 93.7545 251.43 93.6376 251.43 93.5207V88.5525C251.43 88.4356 251.488 88.3771 251.547 88.2602C251.606 88.2018 251.723 88.1433 251.84 88.1433C251.957 88.1433 252.016 88.2018 252.133 88.2602C252.192 88.3187 252.251 88.4356 252.251 88.5525V90.6567H254.831V88.5525C254.831 88.4356 254.889 88.3771 254.948 88.2602C255.006 88.2018 255.124 88.1433 255.241 88.1433C255.358 88.1433 255.417 88.2018 255.534 88.2602C255.593 88.3187 255.651 88.4356 255.651 88.5525V93.5207Z" fill="#603790"/>
<path d="M268.375 93.5207V94.6312C268.375 94.6897 268.375 94.7481 268.375 94.8066C268.375 94.865 268.316 94.865 268.316 94.9235C268.258 94.9819 268.258 94.9819 268.199 94.9819C268.14 94.9819 268.082 94.9819 268.023 94.9819C267.964 94.9819 267.906 94.9819 267.847 94.9235C267.788 94.9235 267.788 94.865 267.73 94.865C267.671 94.8066 267.671 94.8066 267.671 94.7481C267.671 94.6897 267.613 94.6312 267.613 94.5728V93.8714H263.977V94.5728C263.977 94.6312 263.977 94.6897 263.918 94.7481C263.918 94.8066 263.86 94.8066 263.86 94.865C263.801 94.9235 263.801 94.9235 263.743 94.9235C263.684 94.9235 263.625 94.9819 263.567 94.9819C263.508 94.9819 263.449 94.9819 263.391 94.9819C263.332 94.9819 263.332 94.9235 263.273 94.9235C263.215 94.865 263.215 94.865 263.215 94.8066C263.215 94.7481 263.215 94.6897 263.215 94.6312V93.5207C263.215 93.4622 263.215 93.4037 263.215 93.3453C263.215 93.2868 263.273 93.2868 263.273 93.2284C263.332 93.1699 263.332 93.1699 263.391 93.1699C263.449 93.1699 263.508 93.1115 263.567 93.1115L265.384 88.4355C265.443 88.3186 265.502 88.2601 265.56 88.2601C265.619 88.2017 265.678 88.2017 265.795 88.2017C265.912 88.2017 265.971 88.2017 266.029 88.2601C266.088 88.3186 266.147 88.377 266.147 88.4355L267.964 93.1115C268.023 93.1115 268.082 93.1115 268.14 93.1699C268.199 93.2284 268.199 93.2284 268.258 93.2284C268.316 93.2868 268.316 93.2868 268.316 93.3453C268.375 93.4037 268.375 93.4622 268.375 93.5207ZM264.388 93.1115H267.143L265.795 89.6045L264.388 93.1115Z" fill="#603790"/>
<path d="M87.7188 33.1998H111.877C120.613 33.1998 126.184 35.3625 129.643 38.8111C132.634 41.792 134.158 45.416 134.158 50.5012V50.6181C134.158 57.8075 130.405 62.7757 124.425 65.6983L135.917 82.4735H117.095L107.772 68.387H104.254V82.4735C95.1068 82.4735 87.7188 75.1088 87.7188 65.9905V33.1998ZM111.408 56.6384C115.336 56.6384 117.74 54.8849 117.74 51.8455V51.7286C117.74 48.5723 115.277 46.9941 111.466 46.9941H104.254V56.6384H111.408Z" fill="#603790"/>
<path d="M145.943 53.8329C150.341 53.8329 153.976 57.3984 153.976 61.8406V82.532H137.969V61.8406C137.969 57.3984 141.546 53.8329 145.943 53.8329Z" fill="#603790"/>
<path d="M157.789 63.5356V63.4187C157.789 51.261 165.119 43.1364 174.266 43.1364C180.129 43.1364 183.354 45.6497 185.876 48.3969V31.0956H201.883V82.4735H185.876V77.739C183.237 80.5446 180.305 83.3503 174.442 83.3503C165.06 83.4087 157.789 75.2841 157.789 63.5356ZM186.169 63.3602V63.2433C186.169 59.444 183.413 56.3462 179.719 56.3462C176.025 56.3462 173.269 59.3856 173.269 63.2433V63.3602C173.269 67.2179 176.025 70.2574 179.719 70.2574C183.413 70.2574 186.169 67.2179 186.169 63.3602Z" fill="#603790"/>
<path d="M206.632 44.0716H222.639V49.449C225.102 46.2927 228.972 43.1948 234.425 43.1948C242.517 43.1948 247.618 48.5138 247.618 57.2229V82.532H231.611V62.3081C231.611 58.9764 229.617 57.106 227.213 57.106C224.809 57.106 222.639 59.0349 222.639 62.3081V82.532H206.632V44.0716Z" fill="#603790"/>
<path d="M260.341 44.0717C264.739 44.0717 268.374 47.6371 268.374 52.0794V66.5166C268.374 75.3426 261.221 82.4736 252.367 82.4736V52.0209C252.308 47.6371 255.944 44.0717 260.341 44.0717Z" fill="#603790"/>
<path d="M138.204 35.1287C142.485 30.8619 149.463 30.8619 153.743 35.1287C158.023 39.3956 158.023 46.3512 153.743 50.6181C149.463 54.885 142.485 54.885 138.204 50.6181C133.865 46.3512 133.865 39.3956 138.204 35.1287Z" fill="#FEBE41"/>
<path d="M252.543 25.3675C256.824 21.1006 263.801 21.1006 268.082 25.3675C272.362 29.6344 272.362 36.59 268.082 40.8569C263.801 45.1238 256.824 45.1238 252.543 40.8569C248.263 36.59 248.263 29.6344 252.543 25.3675Z" fill="#FEBE41"/>
<path d="M80.096 16.5999C80.096 25.7766 72.6493 33.1998 63.4435 33.1998C54.2377 33.1998 46.791 25.7766 46.791 16.5999C46.791 7.4232 54.2377 0 63.4435 0C72.6493 0 80.096 7.4232 80.096 16.5999Z" fill="#FEBE41"/>
<path d="M60.1014 33.1998C45.8529 33.1998 34.3604 44.7146 34.3604 58.8596V59.3856V62.8926C34.3604 56.58 39.5203 51.4364 45.8529 51.4364C52.1856 51.4364 57.3455 56.58 57.3455 62.8926C57.3455 63.068 57.3455 63.1849 57.3455 63.3018C57.111 69.4391 52.0683 74.3489 45.8529 74.3489H48.0224C55.5864 74.3489 61.6845 80.4278 61.6845 87.9679V96.9108C72.7667 89.7798 80.0961 77.3884 80.0961 63.3018V42.7272V33.1998H60.1014Z" fill="#FEBE41"/>
<path d="M34.3605 63.3019C34.3605 63.185 34.3605 63.0096 34.3605 62.8927C34.1845 53.5991 26.5619 46.059 17.1802 46.059H13.7794C21.402 46.059 27.5587 39.9217 27.5587 32.3231C27.5587 24.7246 21.402 18.5873 13.7794 18.5873C6.15674 18.5873 0 24.7246 0 32.3231C0 39.9217 6.15674 46.059 13.7794 46.059H0V63.3019C0 81.8891 12.7239 97.4953 29.9628 101.938V87.9095C29.9628 80.3694 36.0609 74.2905 43.6249 74.2905H45.7944C39.6377 74.349 34.595 69.4391 34.3605 63.3019Z" fill="#603790"/>
</svg>
