<svg width="512" height="512" viewBox="0 0 512 512" fill="none" xmlns="http://www.w3.org/2000/svg">
<rect width="512" height="512" fill="#F4E1DA"/>
<g clip-path="url(#clip0_26_2)">
<path d="M79.2076 283.202C75.3869 282.282 72.3177 281.084 70 279.608L74.9504 268.064C77.3282 269.522 79.9053 270.61 82.5969 271.291C85.4593 272.076 88.4094 272.479 91.3731 272.488C94.0332 272.488 95.9299 272.206 97.0631 271.643C98.1962 271.08 98.7611 270.266 98.7577 269.203C98.7577 268.154 98.073 267.4 96.7036 266.942C94.583 266.341 92.4195 265.911 90.2331 265.656C86.992 265.284 83.7833 264.659 80.6352 263.788C78.026 263.038 75.6687 261.569 73.8207 259.543C71.9103 257.476 70.9552 254.571 70.9552 250.828C70.9239 247.864 71.874 244.975 73.6512 242.632C75.4417 240.239 78.0624 238.347 81.5134 236.955C84.9643 235.563 89.0896 234.863 93.8894 234.856C97.3048 234.852 100.712 235.203 104.057 235.905C107 236.466 109.842 237.484 112.484 238.922L107.529 250.403C103.388 248.043 98.7186 246.819 93.9767 246.851C91.3731 246.851 89.4577 247.16 88.2457 247.779C87.0338 248.399 86.433 249.217 86.433 250.225C86.433 251.347 87.0954 252.129 88.4306 252.575C90.5897 253.209 92.792 253.677 95.0192 253.976C98.2744 254.427 101.496 255.1 104.663 255.991C107.207 256.755 109.503 258.205 111.308 260.189C113.191 262.231 114.133 265.086 114.133 268.752C114.159 271.694 113.21 274.558 111.442 276.879C109.645 279.272 106.995 281.15 103.492 282.515C99.9902 283.879 95.7758 284.566 90.8493 284.577C86.9299 284.577 83.0236 284.116 79.2076 283.202Z" fill="#603790"/>
<path d="M160.109 237.931C163.626 239.983 166.514 242.995 168.449 246.63C170.503 250.387 171.53 254.76 171.53 259.748C171.53 264.736 170.503 269.108 168.449 272.865C166.515 276.501 163.627 279.514 160.109 281.565C156.548 283.622 152.517 284.679 148.426 284.629C142.921 284.629 138.548 282.941 135.306 279.566V301.079H118.785V235.664H134.51V240.46C137.591 236.734 142.225 234.87 148.411 234.866C152.507 234.813 156.543 235.871 160.109 237.931ZM152.078 268.112C153.926 266.069 154.852 263.27 154.856 259.716C154.859 256.162 153.933 253.364 152.078 251.321C151.149 250.353 150.04 249.584 148.816 249.059C147.593 248.533 146.279 248.263 144.952 248.263C143.625 248.263 142.312 248.533 141.088 249.059C139.865 249.584 138.756 250.353 137.827 251.321C135.972 253.367 135.045 256.166 135.049 259.716C135.052 263.267 135.978 266.065 137.827 268.112C138.756 269.08 139.865 269.849 141.088 270.374C142.312 270.899 143.625 271.17 144.952 271.17C146.279 271.17 147.593 270.899 148.816 270.374C150.04 269.849 151.149 269.08 152.078 268.112Z" fill="#603790"/>
<path d="M176.645 235.286H193.155V283.396H176.645V235.286Z" fill="#603790"/>
<path d="M309.582 281.261C305.631 279.26 302.316 276.154 300.025 272.304C297.734 268.453 296.561 264.017 296.641 259.512C296.572 255.032 297.748 250.624 300.031 246.799C302.314 242.973 305.612 239.888 309.541 237.899C313.824 235.823 318.505 234.746 323.245 234.746C327.985 234.746 332.666 235.823 336.949 237.899C340.852 239.86 344.134 242.906 346.418 246.688C348.707 250.551 349.882 254.997 349.807 259.512C349.877 264.041 348.703 268.5 346.418 272.383C344.138 276.19 340.857 279.266 336.949 281.261C332.681 283.364 328.004 284.456 323.265 284.456C318.527 284.456 313.85 283.364 309.582 281.261ZM330.36 267.97C332.209 265.931 333.135 263.104 333.138 259.491C333.138 255.937 332.212 253.156 330.36 251.148C329.424 250.192 328.313 249.433 327.091 248.916C325.868 248.398 324.558 248.132 323.235 248.132C321.911 248.132 320.601 248.398 319.378 248.916C318.156 249.433 317.045 250.192 316.109 251.148C314.254 253.156 313.328 255.937 313.331 259.491C313.331 263.101 314.257 265.927 316.109 267.97C317.038 268.938 318.147 269.707 319.371 270.233C320.594 270.758 321.908 271.028 323.235 271.028C324.562 271.028 325.875 270.758 327.099 270.233C328.322 269.707 329.431 268.938 330.36 267.97Z" fill="#603790"/>
<path d="M441 235.523V283.632H425.276V278.842C422.195 282.574 417.561 284.439 411.374 284.435C407.282 284.487 403.249 283.43 399.687 281.371C396.161 279.31 393.27 276.282 391.342 272.629C389.288 268.841 388.26 264.469 388.26 259.512C388.26 254.555 389.288 250.183 391.342 246.394C393.275 242.768 396.166 239.77 399.687 237.742C403.257 235.713 407.284 234.673 411.369 234.725C416.933 234.725 421.306 236.381 424.49 239.694V235.496L441 235.523ZM421.974 267.97C423.829 265.931 424.755 263.104 424.752 259.491C424.752 255.937 423.826 253.156 421.974 251.148C421.038 250.192 419.927 249.433 418.705 248.916C417.482 248.398 416.172 248.132 414.849 248.132C413.525 248.132 412.215 248.398 410.992 248.916C409.77 249.433 408.659 250.192 407.723 251.148C405.868 253.156 404.942 255.937 404.945 259.491C404.945 263.101 405.871 265.927 407.723 267.97C408.652 268.938 409.761 269.708 410.984 270.233C412.208 270.758 413.522 271.028 414.849 271.028C416.176 271.028 417.489 270.758 418.713 270.233C419.936 269.708 421.045 268.938 421.974 267.97Z" fill="#603790"/>
<path d="M184.718 231.005C189.854 231.005 194.018 226.75 194.018 221.502C194.018 216.254 189.854 212 184.718 212C179.581 212 175.418 216.254 175.418 221.502C175.418 226.75 179.581 231.005 184.718 231.005Z" fill="#603790"/>
<path d="M322.616 214.54C324.011 214.539 325.375 214.96 326.535 215.752C327.695 216.543 328.6 217.668 329.134 218.984C329.668 220.301 329.808 221.75 329.537 223.148C329.265 224.546 328.593 225.83 327.607 226.838C326.62 227.846 325.363 228.532 323.995 228.81C322.627 229.088 321.209 228.945 319.92 228.399C318.632 227.853 317.531 226.928 316.756 225.743C315.982 224.557 315.569 223.164 315.57 221.739C315.573 219.83 316.316 218.001 317.637 216.651C318.958 215.302 320.748 214.542 322.616 214.54ZM322.616 212.241C320.776 212.238 318.976 212.793 317.444 213.836C315.913 214.878 314.718 216.361 314.012 218.098C313.306 219.834 313.12 221.745 313.478 223.59C313.835 225.434 314.72 227.129 316.021 228.459C317.321 229.79 318.979 230.696 320.784 231.063C322.588 231.43 324.459 231.242 326.159 230.523C327.86 229.803 329.313 228.585 330.335 227.021C331.357 225.457 331.902 223.619 331.9 221.739C331.9 219.222 330.923 216.808 329.182 215.027C327.441 213.246 325.079 212.244 322.616 212.241Z" fill="#603790"/>
<path d="M236.035 283.617H221.266C215.825 283.589 210.617 281.357 206.785 277.41C202.953 273.463 200.811 268.125 200.827 262.566V235.281H216.161V262.566C216.161 263.952 216.698 265.282 217.654 266.265C218.611 267.248 219.909 267.804 221.266 267.813H236.035V283.617Z" fill="#603790"/>
<path d="M292.045 283.632H275.012V260.472C275.012 255.55 271.283 251.552 266.708 251.552C262.132 251.552 258.399 255.555 258.399 260.472V283.632H241.365V260.472C241.365 245.953 252.735 234.142 266.708 234.142C280.681 234.142 292.045 245.953 292.045 260.472V283.632Z" fill="#603790"/>
<path d="M375.355 268.552C373.999 268.552 372.697 268.004 371.735 267.027C370.773 266.05 370.228 264.723 370.22 263.337V250.382H381.518V238.046H370.22V226.319H354.917V263.337C354.922 268.874 357.077 274.182 360.909 278.097C364.741 282.012 369.936 284.214 375.355 284.22H386.299V268.552H375.355Z" fill="#603790"/>
</g>
<defs>
<clipPath id="clip0_26_2">
<rect width="371" height="89" fill="white" transform="translate(70 212)"/>
</clipPath>
</defs>
</svg>
